# Blender v3.1.0 Alpha OBJ File: ''
# www.blender.org
mtllib wall with window middel.mtl
o Cube_Cube.002
v -2.984563 0.000000 -2.680198
v -2.984563 6.551244 -2.680197
v -2.984563 6.551244 -2.984562
v -2.984563 0.000000 -2.984563
v 2.984563 6.551244 -2.984562
v 2.984563 0.000000 -2.984563
v 2.984563 6.551244 -2.680197
v 2.984563 0.000000 -2.680198
v -1.636919 6.551244 -2.984562
v 1.732791 6.551244 -2.984562
v -1.636919 0.000000 -2.984563
v 1.732791 0.000000 -2.984563
v -1.636919 6.551244 -2.680197
v 1.732791 6.551244 -2.680197
v -1.636919 0.000000 -2.680198
v 1.732791 0.000000 -2.680198
v -2.984563 5.065619 -2.984562
v -2.984563 2.881871 -2.984563
v -2.984563 2.881872 -2.680197
v -2.984563 5.065619 -2.680197
v 2.984563 5.065619 -2.680197
v 2.984563 2.881871 -2.680197
v 2.984563 5.065619 -2.984562
v 2.984563 2.881871 -2.984563
v 1.732791 5.065619 -2.680197
v 1.732791 2.881871 -2.680197
v -1.636919 5.065619 -2.680197
v -1.636919 2.881871 -2.680197
v -1.636919 5.065619 -2.984562
v -1.636919 2.881871 -2.984563
v 1.732791 5.065619 -2.984562
v 1.732791 2.881871 -2.984563
vt 0.130600 0.022264
vt 0.022264 0.022264
vt 0.022264 0.000069
vt 0.130600 0.000069
vt 0.891595 0.366267
vt 0.999931 0.366267
vt 0.999931 0.457550
vt 0.891595 0.457550
vt 0.130601 0.479745
vt 0.022265 0.479745
vt 0.022265 0.457550
vt 0.130601 0.457550
vt 0.130600 0.120538
vt 0.022264 0.120538
vt 0.522195 0.366267
vt 0.522195 0.457550
vt 0.500000 0.457550
vt 0.500000 0.366267
vt 0.000069 0.120538
vt 0.000069 0.022264
vt 0.000069 0.457550
vt 0.000069 0.366267
vt 0.022265 0.366267
vt 0.522195 0.022264
vt 0.522195 0.120538
vt 0.500000 0.120538
vt 0.500000 0.022264
vt 0.130601 0.366267
vt 0.891595 0.022264
vt 0.999931 0.022264
vt 0.999931 0.120538
vt 0.891595 0.120538
vt 0.732350 0.120538
vt 0.732350 0.366267
vt 0.289846 0.120538
vt 0.732350 0.022264
vt 0.289846 0.366267
vt 0.289846 0.457550
vt 0.289845 0.022264
vt 0.500000 0.479744
vt 0.289846 0.479744
vt 0.732350 0.457550
vt 0.289845 0.000070
vt 0.500000 0.000070
vn -1.0000 0.0000 0.0000
vn 0.0000 0.0000 -1.0000
vn 1.0000 -0.0000 0.0000
vn 0.0000 -0.0000 1.0000
vn 0.0000 -1.0000 -0.0000
vn 0.0000 1.0000 0.0000
usemtl None.001
s 1
f 20/1/1 2/2/1 3/3/1 17/4/1
f 31/5/2 10/6/2 5/7/2 23/8/2
f 23/9/3 5/10/3 7/11/3 21/12/3
f 27/13/4 13/14/4 2/2/4 20/1/4
f 12/15/5 6/16/5 8/17/5 16/18/5
f 9/19/6 3/20/6 2/2/6 13/14/6
f 5/21/6 10/22/6 14/23/6 7/11/6
f 10/22/6 9/19/6 13/14/6 14/23/6
f 4/24/5 11/25/5 15/26/5 1/27/5
f 11/25/5 12/15/5 16/18/5 15/26/5
f 21/12/4 7/11/4 14/23/4 25/28/4
f 25/28/4 14/23/4 13/14/4 27/13/4
f 17/29/2 3/30/2 9/31/2 29/32/2
f 29/32/2 9/31/2 10/6/2 31/5/2
f 11/25/2 30/33/2 32/34/2 12/15/2
f 30/33/3 29/32/3 27/13/3 28/35/3
f 4/24/2 18/36/2 30/33/2 11/25/2
f 18/36/2 17/29/2 29/32/2 30/33/2
f 16/18/4 26/37/4 28/35/4 15/26/4
f 32/34/6 30/33/6 28/35/6 26/37/6
f 8/17/4 22/38/4 26/37/4 16/18/4
f 22/38/4 21/12/4 25/28/4 26/37/4
f 15/26/4 28/35/4 19/39/4 1/27/4
f 28/35/4 27/13/4 20/1/4 19/39/4
f 6/40/3 24/41/3 22/38/3 8/17/3
f 24/41/3 23/9/3 21/12/3 22/38/3
f 12/15/2 32/34/2 24/42/2 6/16/2
f 32/34/2 31/5/2 23/8/2 24/42/2
f 1/27/1 19/39/1 18/43/1 4/44/1
f 19/39/1 20/1/1 17/4/1 18/43/1
f 29/32/5 31/5/5 25/28/5 27/13/5
f 31/5/1 32/34/1 26/37/1 25/28/1
