# Blender v3.1.0 Alpha OBJ File: ''
# www.blender.org
mtllib button.mtl
o Cube_Cube.001
v -0.316408 0.205313 0.316408
v -0.413407 0.205313 0.171239
v 0.000000 0.205313 0.447469
v -0.171239 0.205313 0.413407
v 0.171239 0.205313 0.413407
v 0.447469 0.205313 0.000000
v 0.413407 0.205313 0.171239
v 0.413407 0.205313 -0.171239
v 0.000000 0.205313 -0.447469
v 0.171239 0.205313 -0.413407
v 0.316408 0.205313 0.316408
v -0.171239 0.205313 -0.413407
v -0.447469 0.205313 0.000000
v -0.413407 0.205313 -0.171239
v 0.316408 0.205313 -0.316408
v -0.316408 0.205313 -0.316408
v 0.413407 0.755440 -0.171239
v 0.447469 0.755440 0.000000
v 0.000000 0.755440 -0.447469
v 0.171239 0.755440 -0.413407
v -0.171239 0.755440 -0.413407
v -0.447469 0.755440 0.000000
v -0.413407 0.755440 -0.171239
v 0.316408 0.755440 0.316408
v 0.171239 0.755440 0.413407
v -0.413407 0.755440 0.171239
v 0.316408 0.755440 -0.316408
v -0.171239 0.755440 0.413407
v -0.316408 0.755440 0.316408
v -0.316408 0.755440 -0.316408
v 0.413407 0.755440 0.171239
v 0.000000 0.755440 0.447469
v 0.379375 0.755440 -0.157142
v 0.410633 0.755440 0.000000
v 0.290361 0.755440 0.290361
v 0.157142 0.755440 0.379375
v -0.379375 0.755440 -0.157142
v -0.290361 0.755440 -0.290361
v 0.000000 0.755440 0.410633
v 0.290361 0.755440 -0.290361
v 0.157142 0.755440 -0.379375
v -0.157142 0.755440 -0.379375
v 0.379375 0.755440 0.157142
v -0.290361 0.755440 0.290361
v -0.379375 0.755440 0.157142
v -0.157142 0.755440 0.379375
v -0.410633 0.755440 0.000000
v 0.000000 0.755440 -0.410633
v 0.000000 0.755440 0.000000
v -0.000000 0.205313 0.000000
vt 0.354527 0.745888
vt 0.319087 0.745888
vt 0.319087 0.634219
vt 0.354527 0.634219
vt 0.248206 0.745888
vt 0.212765 0.745888
vt 0.212765 0.634219
vt 0.248206 0.634219
vt 0.177325 0.745888
vt 0.177325 0.634219
vt 0.106444 0.745888
vt 0.071004 0.745888
vt 0.071004 0.634219
vt 0.106444 0.634219
vt 0.460848 0.745888
vt 0.425408 0.745888
vt 0.425408 0.634219
vt 0.460849 0.634219
vt 0.035563 0.745888
vt 0.035563 0.634219
vt 0.283646 0.745888
vt 0.283646 0.634219
vt 0.567170 0.745888
vt 0.531730 0.745888
vt 0.531730 0.634219
vt 0.567170 0.634219
vt 0.141884 0.745888
vt 0.141884 0.634219
vt 0.389968 0.745888
vt 0.389968 0.634219
vt 0.000123 0.745888
vt 0.000123 0.634219
vt 0.496289 0.745888
vt 0.496289 0.634219
vt 0.606038 0.798827
vt 0.580978 0.773767
vt 0.587195 0.769613
vt 0.610192 0.792610
vt 0.706964 0.798828
vt 0.674221 0.812390
vt 0.672762 0.805056
vt 0.702810 0.792610
vt 0.638781 0.634219
vt 0.674221 0.634219
vt 0.672762 0.641552
vt 0.640239 0.641552
vt 0.732024 0.773767
vt 0.725807 0.769613
vt 0.567415 0.741024
vt 0.574749 0.739566
vt 0.567415 0.705584
vt 0.574749 0.707043
vt 0.606038 0.647781
vt 0.610192 0.653998
vt 0.638781 0.812390
vt 0.640239 0.805056
vt 0.732024 0.672841
vt 0.745586 0.705584
vt 0.738253 0.707043
vt 0.725807 0.676996
vt 0.745586 0.741025
vt 0.738253 0.739566
vt 0.706964 0.647781
vt 0.702810 0.653998
vt 0.580978 0.672841
vt 0.587195 0.676995
vt 0.656501 0.723304
vt 0.496289 0.745888
vt 0.000123 0.745888
vt 0.283646 0.745888
vt 0.248206 0.745888
vt 0.106444 0.745888
vt 0.212765 0.745888
vt 0.354527 0.745888
vt 0.071004 0.745888
vt 0.389968 0.745888
vt 0.460848 0.745888
vt 0.319087 0.745888
vt 0.141884 0.745888
vt 0.177325 0.745888
vt 0.531730 0.745888
vt 0.035563 0.745888
vt 0.425408 0.745888
vn 1.0000 0.0000 0.0000
vn 0.9239 0.0000 -0.3827
vn 0.3827 0.0000 -0.9239
vn 0.0000 0.0000 -1.0000
vn -0.3827 0.0000 -0.9239
vn -0.9239 0.0000 -0.3827
vn -1.0000 0.0000 0.0000
vn 0.3827 -0.0000 0.9239
vn 0.7071 -0.0000 0.7071
vn -0.9239 -0.0000 0.3827
vn 0.7071 0.0000 -0.7071
vn -0.7071 -0.0000 0.7071
vn -0.3827 -0.0000 0.9239
vn -0.7071 0.0000 -0.7071
vn 0.9239 -0.0000 0.3827
vn 0.0000 -0.0000 1.0000
vn 0.0000 1.0000 0.0000
vn 0.0000 -1.0000 -0.0000
usemtl head
s 1
f 6/1/1 8/2/2 17/3/2 18/4/1
f 10/5/3 9/6/4 19/7/4 20/8/3
f 9/6/4 12/9/5 21/10/5 19/7/4
f 14/11/6 13/12/7 22/13/7 23/14/6
f 5/15/8 11/16/9 24/17/9 25/18/8
f 13/12/7 2/19/10 26/20/10 22/13/7
f 8/2/2 15/21/11 27/22/11 17/3/2
f 1/23/12 4/24/13 28/25/13 29/26/12
f 12/9/5 16/27/14 30/28/14 21/10/5
f 11/16/9 7/29/15 31/30/15 24/17/9
f 2/19/10 1/31/12 29/32/12 26/20/10
f 15/21/11 10/5/3 20/8/3 27/22/11
f 4/24/13 3/33/16 32/34/16 28/25/13
f 16/27/14 14/11/6 23/14/6 30/28/14
f 3/33/16 5/15/8 25/18/8 32/34/16
f 7/29/15 6/1/1 18/4/1 31/30/15
f 18/35/17 17/36/17 33/37/17 34/38/17
f 25/39/17 24/40/17 35/41/17 36/42/17
f 30/43/17 23/44/17 37/45/17 38/46/17
f 32/47/17 25/39/17 36/42/17 39/48/17
f 17/36/17 27/49/17 40/50/17 33/37/17
f 27/49/17 20/51/17 41/52/17 40/50/17
f 21/53/17 30/43/17 38/46/17 42/54/17
f 24/40/17 31/55/17 43/56/17 35/41/17
f 26/57/17 29/58/17 44/59/17 45/60/17
f 29/58/17 28/61/17 46/62/17 44/59/17
f 28/61/17 32/47/17 39/48/17 46/62/17
f 31/55/17 18/35/17 34/38/17 43/56/17
f 22/63/17 26/57/17 45/60/17 47/64/17
f 20/51/17 19/65/17 48/66/17 41/52/17
f 19/65/17 21/53/17 42/54/17 48/66/17
f 23/44/17 22/63/17 47/64/17 37/45/17
f 42/54/17 38/46/17 49/67/17
f 48/66/17 42/54/17 49/67/17
f 45/60/17 44/59/17 49/67/17
f 34/38/17 33/37/17 49/67/17
f 46/62/17 39/48/17 49/67/17
f 39/48/17 36/42/17 49/67/17
f 38/46/17 37/45/17 49/67/17
f 43/56/17 34/38/17 49/67/17
f 40/50/17 41/52/17 49/67/17
f 41/52/17 48/66/17 49/67/17
f 35/41/17 43/56/17 49/67/17
f 37/45/17 47/64/17 49/67/17
f 36/42/17 35/41/17 49/67/17
f 44/59/17 46/62/17 49/67/17
f 33/37/17 40/50/17 49/67/17
f 47/64/17 45/60/17 49/67/17
f 3/33/18 4/24/18 50/68/18
f 1/31/18 2/19/18 50/69/18
f 15/21/18 8/2/18 50/70/18
f 10/5/18 15/21/18 50/71/18
f 14/11/18 16/27/18 50/72/18
f 9/6/18 10/5/18 50/73/18
f 6/1/18 7/29/18 50/74/18
f 13/12/18 14/11/18 50/75/18
f 7/29/18 11/16/18 50/76/18
f 5/15/18 3/33/18 50/77/18
f 8/2/18 6/1/18 50/78/18
f 16/27/18 12/9/18 50/79/18
f 12/9/18 9/6/18 50/80/18
f 4/24/18 1/23/18 50/81/18
f 2/19/18 13/12/18 50/82/18
f 11/16/18 5/15/18 50/83/18
