# Blender v3.1.0 Alpha OBJ File: ''
# www.blender.org
mtllib stone 1.mtl
o Icosphere
v 13.180553 -0.120085 3.779932
v 13.337180 -0.000432 3.893727
v 13.120728 -0.000432 3.964057
v 12.986951 -0.000432 3.779932
v 13.120728 -0.000432 3.595807
v 13.284842 0.009531 3.654201
v 13.240378 0.193172 3.964057
v 13.023927 0.193172 3.893727
v 13.023927 0.193172 3.666137
v 13.218785 0.218937 3.549390
v 13.374156 0.193172 3.779932
v 13.219199 0.234566 3.794170
vt 0.181819 0.000000
vt 0.272728 0.157461
vt 0.090910 0.157461
vt 0.363637 0.000000
vt 0.454546 0.157461
vt 0.909091 0.000000
vt 1.000000 0.157461
vt 0.818182 0.157461
vt 0.727273 0.000000
vt 0.636364 0.157461
vt 0.545455 0.000000
vt 0.363637 0.314921
vt 0.181819 0.314921
vt 0.909091 0.314921
vt 0.727273 0.314921
vt 0.545455 0.314921
vt 0.000000 0.314921
vt 0.272728 0.472382
vt 0.090910 0.472382
vt 0.818182 0.472382
vt 0.636364 0.472382
vt 0.454546 0.472382
vn 0.0456 -0.9987 -0.0213
vn 0.7563 -0.4636 0.4614
vn -0.2764 -0.4472 0.8506
vn 0.6633 -0.4832 -0.5714
vn -0.8944 -0.4472 0.0000
vn -0.2780 -0.5093 -0.8144
vn 0.8808 0.4732 -0.0187
vn 0.2540 0.5445 0.7994
vn -0.6727 0.5594 0.4842
vn -0.7266 0.5441 -0.4196
vn 0.1870 0.5412 -0.8198
vn 0.0494 0.9962 0.0720
usemtl None
s 1
f 1/1/1 2/2/2 3/3/3
f 2/2/2 1/4/1 6/5/4
f 1/6/1 3/7/3 4/8/5
f 1/9/1 4/8/5 5/10/6
f 1/11/1 5/10/6 6/5/4
f 2/2/2 6/5/4 11/12/7
f 3/3/3 2/2/2 7/13/8
f 4/8/5 3/7/3 8/14/9
f 5/10/6 4/8/5 9/15/10
f 6/5/4 5/10/6 10/16/11
f 2/2/2 11/12/7 7/13/8
f 3/3/3 7/13/8 8/17/9
f 4/8/5 8/14/9 9/15/10
f 5/10/6 9/15/10 10/16/11
f 6/5/4 10/16/11 11/12/7
f 7/13/8 11/12/7 12/18/12
f 8/17/9 7/13/8 12/19/12
f 9/15/10 8/14/9 12/20/12
f 10/16/11 9/15/10 12/21/12
f 11/12/7 10/16/11 12/22/12
