# Blender v3.1.0 Alpha OBJ File: ''
# www.blender.org
mtllib wall with hole final.mtl
o wall__5_.001_Scene.014
v 8.843798 -0.027600 -15.741687
v 9.148163 -0.027600 -15.741687
v 9.148163 5.304011 -15.741687
v 8.843798 5.304011 -15.741687
v 9.148163 -0.027600 -10.805696
v 9.148163 5.304011 -10.805696
v 8.843798 -0.027600 -10.805696
v 8.843798 5.304011 -10.805696
v 9.148163 -0.027600 -12.875315
v 8.843798 -0.027600 -12.875315
v 9.148163 5.304011 -12.875315
v 8.843798 5.304011 -12.875315
v 9.148163 -0.027600 -14.809067
v 9.148163 5.304011 -14.809067
v 8.843798 -0.027600 -14.809067
v 8.843798 5.304011 -14.809067
v 8.843798 1.908568 -15.741687
v 9.148163 1.908568 -15.741687
v 8.843798 1.908568 -10.805696
v 9.148163 1.908568 -10.805696
v 9.148163 1.908568 -12.875315
v 8.843798 1.908568 -12.875315
v 9.148163 1.908568 -14.809067
v 8.843798 1.908568 -14.809067
v 8.843798 1.987041 -15.741687
v 9.148163 1.987042 -15.741687
v 8.843798 1.987041 -10.805696
v 9.148163 1.987042 -10.805696
v 9.148163 1.987042 -12.875315
v 8.843798 1.987041 -12.875315
v 9.148163 1.987042 -14.809067
v 8.843798 1.987041 -14.809067
v 9.148163 -0.027600 -12.797981
v 8.843798 -0.027600 -12.797981
v 9.148163 5.304011 -12.797981
v 8.843798 5.304011 -12.797981
v 8.843798 1.908568 -12.797981
v 9.148163 1.908568 -12.797981
v 9.148163 1.987042 -12.797981
v 8.843798 1.987041 -12.797981
v 9.148163 -0.027600 -14.843033
v 9.148163 5.304011 -14.843033
v 8.843798 -0.027600 -14.843033
v 8.843798 5.304011 -14.843033
v 8.843798 1.908568 -14.843033
v 9.148163 1.908568 -14.843033
v 9.148163 1.987042 -14.843033
v 8.843798 1.987041 -14.843033
vt 0.326511 0.000070
vt 0.500000 0.000070
vt 0.500000 0.022264
vt 0.326511 0.022264
vt 0.500000 0.101513
vt 0.522195 0.022264
vt 0.522195 0.101513
vt 0.326511 0.275038
vt 0.326511 0.104508
vt 0.695684 0.104508
vt 0.695684 0.275038
vt 0.022264 0.104508
vt 0.022265 0.275038
vt 0.000069 0.275038
vt 0.000069 0.104508
vt 0.695684 0.281858
vt 0.522195 0.281858
vt 0.522195 0.275038
vt 0.326511 0.281858
vt 0.500000 0.281858
vt 0.500000 0.457550
vt 0.326511 0.457550
vt 0.500000 0.275038
vt 0.695684 0.101513
vt 0.695684 0.022264
vt 0.022265 0.281858
vt 0.022265 0.457550
vt 0.000069 0.457550
vt 0.000069 0.281858
vt 0.022264 0.101513
vt 0.000069 0.101513
vt 0.326511 0.101513
vt 0.500000 0.104508
vt 0.500000 0.479744
vt 0.326511 0.479744
vt 0.319480 0.457550
vt 0.319480 0.479744
vt 0.319479 0.101513
vt 0.319479 0.104508
vt 0.702716 0.275038
vt 0.702716 0.104508
vt 0.702716 0.101513
vt 0.702716 0.022264
vt 0.319479 0.281858
vt 0.702716 0.281858
vt 0.319479 0.275038
vt 0.319479 0.000070
vt 0.319479 0.022264
vt 0.522195 0.104508
vt 0.022264 0.000069
vt 0.022264 0.022264
vt 0.999931 0.281858
vt 0.999931 0.275038
vt 0.999931 0.101513
vt 0.999931 0.022264
vt 0.999931 0.104508
vt 0.022265 0.479745
vt 0.999931 0.457550
vt 0.702716 0.457550
vt 0.695684 0.457550
vt 0.522195 0.457550
vt 0.000069 0.022264
vn 0.0000 0.0000 -1.0000
vn 0.4404 -0.8611 0.2543
vn 0.0000 -1.0000 0.0000
vn -0.9045 -0.3015 -0.3015
vn -0.9045 -0.3015 0.3015
vn 0.9045 -0.3015 0.3015
vn 0.9045 -0.3015 -0.3015
vn 0.0000 1.0000 0.0000
vn 1.0000 0.0000 0.0000
vn 0.7014 0.1267 -0.7014
vn -1.0000 0.0000 0.0000
vn -0.8611 0.4404 0.2543
vn -0.7014 0.1267 -0.7014
vn -0.4404 -0.8611 -0.2543
vn 0.8611 0.4404 -0.2543
vn -0.7014 0.1267 0.7014
vn 0.0000 0.0000 1.0000
vn 0.7014 0.1267 0.7014
usemtl New_Material.001
s 1
f 18/1/1 2/2/1 1/3/1 17/4/1
f 43/5/2 1/3/3 2/6/3 41/7/3
f 22/8/4 24/9/5 23/10/6 21/11/7
f 16/12/8 12/13/8 11/14/8 14/15/8
f 38/16/9 33/17/9 9/18/10 21/11/7
f 37/19/11 34/20/12 7/21/11 19/22/11
f 34/20/3 10/23/13 9/18/10 33/17/14
f 46/24/9 41/7/15 2/6/9 18/25/9
f 36/26/8 8/27/8 6/28/8 35/29/8
f 10/23/13 22/8/4 21/11/7 9/18/10
f 44/30/8 16/12/8 14/15/8 42/31/8
f 45/32/11 43/5/11 15/33/16 24/9/5
f 19/22/17 7/21/17 5/34/17 20/35/17
f 27/36/17 19/22/17 20/35/17 28/37/17
f 48/38/11 45/32/11 24/9/5 32/39/11
f 29/40/9 21/11/7 23/10/6 31/41/9
f 47/42/9 46/24/9 18/25/9 26/43/9
f 40/44/11 37/19/11 19/22/11 27/36/11
f 39/45/9 38/16/9 21/11/7 29/40/9
f 32/39/11 24/9/5 22/8/4 30/46/11
f 26/47/1 18/1/1 17/4/1 25/48/1
f 24/9/5 15/33/16 13/49/18 23/10/6
f 3/50/1 26/47/1 25/48/1 4/51/1
f 16/12/11 32/39/11 30/46/11 12/13/11
f 35/52/9 39/45/9 29/40/9 11/53/9
f 36/26/11 40/44/11 27/36/11 8/27/11
f 42/54/9 47/42/9 26/43/9 3/55/9
f 11/53/9 29/40/9 31/41/9 14/56/9
f 44/30/11 48/38/11 32/39/11 16/12/11
f 8/27/17 27/36/17 28/37/17 6/57/17
f 12/13/11 30/46/11 40/44/11 36/26/11
f 6/58/9 28/59/9 39/45/9 35/52/9
f 28/59/9 20/60/9 38/16/9 39/45/9
f 30/46/11 22/8/4 37/19/11 40/44/11
f 12/13/8 36/26/8 35/29/8 11/14/8
f 7/21/3 34/20/3 33/17/14 5/61/3
f 22/8/4 10/23/13 34/20/12 37/19/11
f 20/60/9 5/61/9 33/17/9 38/16/9
f 4/51/11 25/48/11 48/38/11 44/30/11
f 14/56/9 31/41/9 47/42/9 42/54/9
f 31/41/9 23/10/6 46/24/9 47/42/9
f 25/48/11 17/4/11 45/32/11 48/38/11
f 17/4/11 1/3/11 43/5/11 45/32/11
f 4/51/8 44/30/8 42/31/8 3/62/8
f 23/10/6 13/49/18 41/7/15 46/24/9
f 15/33/16 43/5/2 41/7/3 13/49/18
