# Blender v3.1.0 Alpha OBJ File: ''
# www.blender.org
mtllib wire 1.mtl
o Plane.001
v -3.115929 2.364764 2.560275
v -3.108608 2.364764 2.552954
v -3.105929 2.364764 2.542954
v -3.108608 2.364764 2.532954
v -3.115929 2.364764 2.525634
v -3.125929 2.364764 2.522954
v -3.135929 2.364764 2.525634
v -3.143249 2.364764 2.532954
v -3.145929 2.364764 2.542954
v -3.143249 2.364764 2.552954
v -3.135929 2.364764 2.560275
v -3.125929 2.364764 2.562954
v -3.115929 3.021336 2.560275
v -3.108608 3.021336 2.552954
v -3.105929 3.021336 2.542954
v -3.108608 3.021336 2.532954
v -3.115929 3.021336 2.525634
v -3.125929 3.021336 2.522954
v -3.135929 3.021336 2.525634
v -3.143249 3.021336 2.532954
v -3.145929 3.021336 2.542954
v -3.143249 3.021336 2.552954
v -3.135929 3.021336 2.560275
v -3.125929 3.021336 2.562954
v -3.115929 4.207267 2.560275
v -3.108608 4.207267 2.552954
v -3.105929 4.207267 2.542954
v -3.108608 4.207267 2.532954
v -3.115929 4.207267 2.525634
v -3.125929 4.207267 2.522954
v -3.135929 4.207267 2.525634
v -3.143249 4.207267 2.532954
v -3.145929 4.207267 2.542954
v -3.143249 4.207267 2.552954
v -3.135929 4.207267 2.560275
v -3.125929 4.207267 2.562954
v -3.115929 4.907616 2.560232
v -3.108608 4.908131 2.552930
v -3.105929 4.908834 2.542954
v -3.108608 4.909537 2.532979
v -3.115929 4.910052 2.525677
v -3.125929 4.910241 2.523004
v -3.135929 4.910052 2.525677
v -3.143249 4.909537 2.532979
v -3.145929 4.908834 2.542954
v -3.143249 4.908131 2.552930
v -3.135929 4.907616 2.560232
v -3.125929 4.907428 2.562905
v -3.115929 4.943192 2.565245
v -3.108608 4.944873 2.558120
v -3.105929 4.947169 2.548387
v -3.108608 4.949465 2.538654
v -3.115929 4.951146 2.531529
v -3.125929 4.951761 2.528921
v -3.135929 4.951146 2.531529
v -3.143249 4.949465 2.538654
v -3.145929 4.947169 2.548387
v -3.143249 4.944873 2.558120
v -3.135929 4.943192 2.565245
v -3.125929 4.942577 2.567853
v -3.115929 4.981034 2.577646
v -3.108608 4.984611 2.571258
v -3.105929 4.989495 2.562532
v -3.108608 4.994379 2.553806
v -3.115929 4.997955 2.547419
v -3.125929 4.999264 2.545080
v -3.135929 4.997955 2.547419
v -3.143249 4.994379 2.553806
v -3.145929 4.989495 2.562532
v -3.143249 4.984611 2.571258
v -3.135929 4.981034 2.577646
v -3.125929 4.979726 2.579984
v -3.115929 5.013433 2.605017
v -3.108608 5.018857 2.600101
v -3.105929 5.026266 2.593385
v -3.108608 5.033675 2.586668
v -3.115929 5.039098 2.581752
v -3.125929 5.041084 2.579952
v -3.135929 5.039098 2.581752
v -3.143249 5.033675 2.586668
v -3.145929 5.026266 2.593385
v -3.143249 5.018857 2.600101
v -3.135929 5.013433 2.605017
v -3.125929 5.011447 2.606817
v -3.115929 5.036470 2.638090
v -3.108608 5.043321 2.635511
v -3.105929 5.052680 2.631989
v -3.108608 5.062039 2.628466
v -3.115929 5.068891 2.625888
v -3.125929 5.071399 2.624944
v -3.135929 5.068891 2.625888
v -3.143249 5.062039 2.628466
v -3.145929 5.052680 2.631989
v -3.143249 5.043321 2.635511
v -3.135929 5.036470 2.638090
v -3.125929 5.033962 2.639033
v -3.116115 5.041746 2.686426
v -3.108741 5.048944 2.685423
v -3.105973 5.058878 2.684526
v -3.108551 5.068890 2.683975
v -3.115787 5.076294 2.683917
v -3.125739 5.079109 2.684369
v -3.135743 5.076578 2.685209
v -3.143116 5.069381 2.686212
v -3.145885 5.059446 2.687109
v -3.143306 5.049435 2.687661
v -3.136071 5.042030 2.687718
v -3.126118 5.039216 2.687266
v -3.103438 5.043981 2.782086
v -3.096028 5.051197 2.781626
v -3.093211 5.061158 2.781478
v -3.095740 5.071195 2.781679
v -3.102939 5.078619 2.782178
v -3.112878 5.081439 2.782839
v -3.122894 5.078902 2.783487
v -3.130303 5.071687 2.783946
v -3.133121 5.061726 2.784095
v -3.130591 5.051689 2.783893
v -3.123393 5.044265 2.783395
v -3.113454 5.041444 2.782733
v -3.103424 5.042883 2.818430
v -3.095995 5.050093 2.818540
v -3.093168 5.060051 2.818692
v -3.095699 5.070088 2.818845
v -3.102910 5.077516 2.818958
v -3.112869 5.080343 2.819001
v -3.122908 5.077812 2.818962
v -3.130336 5.070602 2.818853
v -3.133163 5.060644 2.818701
v -3.130633 5.050607 2.818548
v -3.123421 5.043179 2.818435
v -3.113462 5.040352 2.818392
v -3.103424 5.042881 7.321203
v -3.095995 5.050092 7.321203
v -3.093168 5.060051 7.321203
v -3.095699 5.070090 7.321203
v -3.102910 5.077518 7.321203
v -3.112869 5.080345 7.321203
v -3.122908 5.077814 7.321203
v -3.130336 5.070603 7.321203
v -3.133163 5.060644 7.321203
v -3.130633 5.050605 7.321203
v -3.123421 5.043177 7.321203
v -3.113462 5.040350 7.321203
vt 0.000000 1.000000
vt 0.090909 1.000000
vt 0.090909 0.916667
vt 0.000000 0.916667
vt 0.000000 0.083333
vt 0.090909 0.083333
vt 0.090909 0.000000
vt 0.000000 0.000000
vt 0.000000 0.166667
vt 0.090909 0.166667
vt 0.000000 0.250000
vt 0.090909 0.250000
vt 0.000000 0.333333
vt 0.090909 0.333333
vt 0.000000 0.416667
vt 0.090909 0.416667
vt 0.000000 0.500000
vt 0.090909 0.500000
vt 0.000000 0.583333
vt 0.090909 0.583333
vt 0.000000 0.666667
vt 0.090909 0.666667
vt 0.000000 0.750000
vt 0.090909 0.750000
vt 0.000000 0.833333
vt 0.090909 0.833333
vt 0.181818 1.000000
vt 0.181818 0.916667
vt 0.181818 0.083333
vt 0.181818 0.000000
vt 0.181818 0.166667
vt 0.181818 0.250000
vt 0.181818 0.333333
vt 0.181818 0.416667
vt 0.181818 0.500000
vt 0.181818 0.583333
vt 0.181818 0.666667
vt 0.181818 0.750000
vt 0.181818 0.833333
vt 0.272727 1.000000
vt 0.272727 0.916667
vt 0.272727 0.083333
vt 0.272727 0.000000
vt 0.272727 0.166667
vt 0.272727 0.250000
vt 0.272727 0.333333
vt 0.272727 0.416667
vt 0.272727 0.500000
vt 0.272727 0.583333
vt 0.272727 0.666667
vt 0.272727 0.750000
vt 0.272727 0.833333
vt 0.363636 1.000000
vt 0.363636 0.916667
vt 0.363636 0.083333
vt 0.363636 0.000000
vt 0.363636 0.166667
vt 0.363636 0.250000
vt 0.363636 0.333333
vt 0.363636 0.416667
vt 0.363636 0.500000
vt 0.363636 0.583333
vt 0.363636 0.666667
vt 0.363636 0.750000
vt 0.363636 0.833333
vt 0.454545 1.000000
vt 0.454545 0.916667
vt 0.454545 0.083333
vt 0.454545 0.000000
vt 0.454545 0.166667
vt 0.454545 0.250000
vt 0.454545 0.333333
vt 0.454545 0.416667
vt 0.454545 0.500000
vt 0.454545 0.583333
vt 0.454545 0.666667
vt 0.454545 0.750000
vt 0.454545 0.833333
vt 0.545455 1.000000
vt 0.545455 0.916667
vt 0.545455 0.083333
vt 0.545455 0.000000
vt 0.545455 0.166667
vt 0.545455 0.250000
vt 0.545455 0.333333
vt 0.545455 0.416667
vt 0.545455 0.500000
vt 0.545455 0.583333
vt 0.545455 0.666667
vt 0.545455 0.750000
vt 0.545455 0.833333
vt 0.636364 1.000000
vt 0.636364 0.916667
vt 0.636364 0.083333
vt 0.636364 0.000000
vt 0.636364 0.166667
vt 0.636364 0.250000
vt 0.636364 0.333333
vt 0.636364 0.416667
vt 0.636364 0.500000
vt 0.636364 0.583333
vt 0.636364 0.666667
vt 0.636364 0.750000
vt 0.636364 0.833333
vt 0.727273 1.000000
vt 0.727273 0.916667
vt 0.727273 0.083333
vt 0.727273 0.000000
vt 0.727273 0.166667
vt 0.727273 0.250000
vt 0.727273 0.333333
vt 0.727273 0.416667
vt 0.727273 0.500000
vt 0.727273 0.583333
vt 0.727273 0.666667
vt 0.727273 0.750000
vt 0.727273 0.833333
vt 0.818182 1.000000
vt 0.818182 0.916667
vt 0.818182 0.083333
vt 0.818182 0.000000
vt 0.818182 0.166667
vt 0.818182 0.250000
vt 0.818182 0.333333
vt 0.818182 0.416667
vt 0.818182 0.500000
vt 0.818182 0.583333
vt 0.818182 0.666667
vt 0.818182 0.750000
vt 0.818182 0.833333
vt 0.909091 1.000000
vt 0.909091 0.916667
vt 0.909091 0.083333
vt 0.909091 0.000000
vt 0.909091 0.166667
vt 0.909091 0.250000
vt 0.909091 0.333333
vt 0.909091 0.416667
vt 0.909091 0.500000
vt 0.909091 0.583333
vt 0.909091 0.666667
vt 0.909091 0.750000
vt 0.909091 0.833333
vt 1.000000 1.000000
vt 1.000000 0.916667
vt 1.000000 0.083333
vt 1.000000 0.000000
vt 1.000000 0.166667
vt 1.000000 0.250000
vt 1.000000 0.333333
vt 1.000000 0.416667
vt 1.000000 0.500000
vt 1.000000 0.583333
vt 1.000000 0.666667
vt 1.000000 0.750000
vt 1.000000 0.833333
vn 0.5000 0.0000 0.8660
vn 0.0000 0.0000 1.0000
vn 0.8660 0.0000 0.5000
vn 1.0000 0.0000 0.0000
vn 0.8660 0.0000 -0.5000
vn 0.5000 0.0000 -0.8660
vn 0.0000 0.0000 -1.0000
vn -0.5000 0.0000 -0.8660
vn -0.8660 0.0000 -0.5000
vn -1.0000 0.0000 0.0000
vn -0.8660 0.0000 0.5000
vn -0.5000 0.0000 0.8660
vn 0.4998 0.0000 0.8661
vn 0.8659 0.0000 0.5002
vn 0.8659 0.0000 -0.5002
vn 0.4998 0.0000 -0.8661
vn -0.4998 0.0000 -0.8661
vn -0.8659 0.0000 -0.5002
vn -0.8659 0.0000 0.5002
vn -0.4998 0.0000 0.8661
vn 0.5051 -0.0603 0.8609
vn 0.0000 -0.0699 0.9975
vn 0.8711 -0.0344 0.4899
vn 0.9999 0.0008 -0.0115
vn 0.8610 0.0359 -0.5072
vn 0.4951 0.0614 -0.8667
vn 0.0000 0.0707 -0.9975
vn -0.4951 0.0614 -0.8666
vn -0.8610 0.0359 -0.5072
vn -0.9999 0.0008 -0.0115
vn -0.8711 -0.0344 0.4899
vn -0.5051 -0.0603 0.8609
vn 0.5053 -0.1955 0.8405
vn 0.0000 -0.2260 0.9741
vn 0.8718 -0.1116 0.4769
vn 0.9999 0.0037 -0.0145
vn 0.8589 0.1186 -0.4982
vn 0.4926 0.2020 -0.8465
vn 0.0000 0.2324 -0.9726
vn -0.4926 0.2020 -0.8465
vn -0.8589 0.1186 -0.4982
vn -0.9999 0.0037 -0.0145
vn -0.8718 -0.1116 0.4769
vn -0.5053 -0.1955 0.8405
vn 0.5162 -0.4175 0.7478
vn 0.0000 -0.4873 0.8733
vn 0.8806 -0.2312 0.4136
vn 0.9995 0.0151 -0.0268
vn 0.8538 0.2546 -0.4540
vn 0.4889 0.4269 -0.7607
vn 0.0000 0.4894 -0.8721
vn -0.4890 0.4269 -0.7607
vn -0.8538 0.2546 -0.4540
vn -0.9995 0.0151 -0.0268
vn -0.8806 -0.2312 0.4136
vn -0.5162 -0.4175 0.7478
vn 0.5069 -0.6373 0.5804
vn 0.0000 -0.7390 0.6736
vn 0.8741 -0.3594 0.3266
vn 0.9997 0.0168 -0.0150
vn 0.8548 0.3850 -0.3479
vn 0.4882 0.6476 -0.5849
vn 0.0000 0.7422 -0.6702
vn -0.4882 0.6476 -0.5849
vn -0.8548 0.3850 -0.3479
vn -0.9997 0.0168 -0.0150
vn -0.8741 -0.3594 0.3266
vn -0.5069 -0.6373 0.5804
vn 0.5217 -0.7985 0.3002
vn -0.0015 -0.9361 0.3516
vn 0.8847 -0.4362 0.1642
vn 0.9993 0.0345 -0.0132
vn 0.8526 0.4887 -0.1849
vn 0.4891 0.8159 -0.3083
vn 0.0013 0.9356 -0.3531
vn -0.4866 0.8175 -0.3081
vn -0.8507 0.4921 -0.1848
vn -0.9991 0.0388 -0.0137
vn -0.8866 -0.4327 0.1634
vn -0.5246 -0.7969 0.2996
vn 0.4843 -0.8745 0.0270
vn -0.0192 -0.9975 0.0678
vn 0.8597 -0.5103 -0.0211
vn 0.9978 -0.0030 -0.0654
vn 0.8598 0.5019 -0.0942
vn 0.4914 0.8653 -0.0984
vn -0.0027 0.9971 -0.0761
vn -0.4946 0.8685 -0.0332
vn -0.8586 0.5122 0.0185
vn -0.9977 0.0186 0.0643
vn -0.8719 -0.4812 0.0911
vn -0.5141 -0.8527 0.0917
vn 0.4961 -0.8675 -0.0359
vn -0.0033 -1.0000 -0.0035
vn 0.8609 -0.5053 -0.0587
vn 0.9977 -0.0110 -0.0659
vn 0.8722 0.4859 -0.0558
vn 0.5170 0.8554 -0.0311
vn 0.0246 0.9997 0.0018
vn -0.4760 0.8788 0.0340
vn -0.8514 0.5213 0.0571
vn -0.9977 0.0201 0.0648
vn -0.8709 -0.4883 0.0548
vn -0.5051 -0.8625 0.0297
vn 0.4860 -0.8738 -0.0133
vn -0.0151 -0.9998 -0.0153
vn 0.8575 -0.5144 -0.0081
vn 0.9998 -0.0172 -0.0008
vn 0.8745 0.4849 0.0067
vn 0.5142 0.8575 0.0126
vn 0.0152 0.9998 0.0151
vn -0.4882 0.8726 0.0132
vn -0.8597 0.5106 0.0075
vn -0.9999 0.0121 -0.0004
vn -0.8724 -0.4887 -0.0081
vn -0.5121 -0.8588 -0.0135
vn 0.4871 -0.8733 0.0000
vn -0.0148 -0.9999 0.0000
vn 0.8585 -0.5128 0.0000
vn 0.9999 -0.0148 0.0000
vn 0.8733 0.4871 0.0000
vn 0.5127 0.8585 0.0000
vn 0.0148 0.9999 0.0000
vn -0.4871 0.8733 0.0000
vn -0.8585 0.5128 0.0000
vn -0.9999 0.0148 0.0000
vn -0.8733 -0.4871 0.0000
vn -0.5127 -0.8585 0.0000
usemtl None
s 1
f 1/1/1 13/2/1 24/3/2 12/4/2
f 2/5/3 14/6/3 13/7/1 1/8/1
f 3/9/4 15/10/4 14/6/3 2/5/3
f 4/11/5 16/12/5 15/10/4 3/9/4
f 5/13/6 17/14/6 16/12/5 4/11/5
f 6/15/7 18/16/7 17/14/6 5/13/6
f 7/17/8 19/18/8 18/16/7 6/15/7
f 8/19/9 20/20/9 19/18/8 7/17/8
f 9/21/10 21/22/10 20/20/9 8/19/9
f 10/23/11 22/24/11 21/22/10 9/21/10
f 11/25/12 23/26/12 22/24/11 10/23/11
f 12/4/2 24/3/2 23/26/12 11/25/12
f 13/2/1 25/27/13 36/28/2 24/3/2
f 14/6/3 26/29/14 25/30/13 13/7/1
f 15/10/4 27/31/4 26/29/14 14/6/3
f 16/12/5 28/32/15 27/31/4 15/10/4
f 17/14/6 29/33/16 28/32/15 16/12/5
f 18/16/7 30/34/7 29/33/16 17/14/6
f 19/18/8 31/35/17 30/34/7 18/16/7
f 20/20/9 32/36/18 31/35/17 19/18/8
f 21/22/10 33/37/10 32/36/18 20/20/9
f 22/24/11 34/38/19 33/37/10 21/22/10
f 23/26/12 35/39/20 34/38/19 22/24/11
f 24/3/2 36/28/2 35/39/20 23/26/12
f 25/27/13 37/40/21 48/41/22 36/28/2
f 26/29/14 38/42/23 37/43/21 25/30/13
f 27/31/4 39/44/24 38/42/23 26/29/14
f 28/32/15 40/45/25 39/44/24 27/31/4
f 29/33/16 41/46/26 40/45/25 28/32/15
f 30/34/7 42/47/27 41/46/26 29/33/16
f 31/35/17 43/48/28 42/47/27 30/34/7
f 32/36/18 44/49/29 43/48/28 31/35/17
f 33/37/10 45/50/30 44/49/29 32/36/18
f 34/38/19 46/51/31 45/50/30 33/37/10
f 35/39/20 47/52/32 46/51/31 34/38/19
f 36/28/2 48/41/22 47/52/32 35/39/20
f 37/40/21 49/53/33 60/54/34 48/41/22
f 38/42/23 50/55/35 49/56/33 37/43/21
f 39/44/24 51/57/36 50/55/35 38/42/23
f 40/45/25 52/58/37 51/57/36 39/44/24
f 41/46/26 53/59/38 52/58/37 40/45/25
f 42/47/27 54/60/39 53/59/38 41/46/26
f 43/48/28 55/61/40 54/60/39 42/47/27
f 44/49/29 56/62/41 55/61/40 43/48/28
f 45/50/30 57/63/42 56/62/41 44/49/29
f 46/51/31 58/64/43 57/63/42 45/50/30
f 47/52/32 59/65/44 58/64/43 46/51/31
f 48/41/22 60/54/34 59/65/44 47/52/32
f 49/53/33 61/66/45 72/67/46 60/54/34
f 50/55/35 62/68/47 61/69/45 49/56/33
f 51/57/36 63/70/48 62/68/47 50/55/35
f 52/58/37 64/71/49 63/70/48 51/57/36
f 53/59/38 65/72/50 64/71/49 52/58/37
f 54/60/39 66/73/51 65/72/50 53/59/38
f 55/61/40 67/74/52 66/73/51 54/60/39
f 56/62/41 68/75/53 67/74/52 55/61/40
f 57/63/42 69/76/54 68/75/53 56/62/41
f 58/64/43 70/77/55 69/76/54 57/63/42
f 59/65/44 71/78/56 70/77/55 58/64/43
f 60/54/34 72/67/46 71/78/56 59/65/44
f 61/66/45 73/79/57 84/80/58 72/67/46
f 62/68/47 74/81/59 73/82/57 61/69/45
f 63/70/48 75/83/60 74/81/59 62/68/47
f 64/71/49 76/84/61 75/83/60 63/70/48
f 65/72/50 77/85/62 76/84/61 64/71/49
f 66/73/51 78/86/63 77/85/62 65/72/50
f 67/74/52 79/87/64 78/86/63 66/73/51
f 68/75/53 80/88/65 79/87/64 67/74/52
f 69/76/54 81/89/66 80/88/65 68/75/53
f 70/77/55 82/90/67 81/89/66 69/76/54
f 71/78/56 83/91/68 82/90/67 70/77/55
f 72/67/46 84/80/58 83/91/68 71/78/56
f 73/79/57 85/92/69 96/93/70 84/80/58
f 74/81/59 86/94/71 85/95/69 73/82/57
f 75/83/60 87/96/72 86/94/71 74/81/59
f 76/84/61 88/97/73 87/96/72 75/83/60
f 77/85/62 89/98/74 88/97/73 76/84/61
f 78/86/63 90/99/75 89/98/74 77/85/62
f 79/87/64 91/100/76 90/99/75 78/86/63
f 80/88/65 92/101/77 91/100/76 79/87/64
f 81/89/66 93/102/78 92/101/77 80/88/65
f 82/90/67 94/103/79 93/102/78 81/89/66
f 83/91/68 95/104/80 94/103/79 82/90/67
f 84/80/58 96/93/70 95/104/80 83/91/68
f 85/92/69 97/105/81 108/106/82 96/93/70
f 86/94/71 98/107/83 97/108/81 85/95/69
f 87/96/72 99/109/84 98/107/83 86/94/71
f 88/97/73 100/110/85 99/109/84 87/96/72
f 89/98/74 101/111/86 100/110/85 88/97/73
f 90/99/75 102/112/87 101/111/86 89/98/74
f 91/100/76 103/113/88 102/112/87 90/99/75
f 92/101/77 104/114/89 103/113/88 91/100/76
f 93/102/78 105/115/90 104/114/89 92/101/77
f 94/103/79 106/116/91 105/115/90 93/102/78
f 95/104/80 107/117/92 106/116/91 94/103/79
f 96/93/70 108/106/82 107/117/92 95/104/80
f 97/105/81 109/118/93 120/119/94 108/106/82
f 98/107/83 110/120/95 109/121/93 97/108/81
f 99/109/84 111/122/96 110/120/95 98/107/83
f 100/110/85 112/123/97 111/122/96 99/109/84
f 101/111/86 113/124/98 112/123/97 100/110/85
f 102/112/87 114/125/99 113/124/98 101/111/86
f 103/113/88 115/126/100 114/125/99 102/112/87
f 104/114/89 116/127/101 115/126/100 103/113/88
f 105/115/90 117/128/102 116/127/101 104/114/89
f 106/116/91 118/129/103 117/128/102 105/115/90
f 107/117/92 119/130/104 118/129/103 106/116/91
f 108/106/82 120/119/94 119/130/104 107/117/92
f 109/118/93 121/131/105 132/132/106 120/119/94
f 110/120/95 122/133/107 121/134/105 109/121/93
f 111/122/96 123/135/108 122/133/107 110/120/95
f 112/123/97 124/136/109 123/135/108 111/122/96
f 113/124/98 125/137/110 124/136/109 112/123/97
f 114/125/99 126/138/111 125/137/110 113/124/98
f 115/126/100 127/139/112 126/138/111 114/125/99
f 116/127/101 128/140/113 127/139/112 115/126/100
f 117/128/102 129/141/114 128/140/113 116/127/101
f 118/129/103 130/142/115 129/141/114 117/128/102
f 119/130/104 131/143/116 130/142/115 118/129/103
f 120/119/94 132/132/106 131/143/116 119/130/104
f 121/131/105 133/144/117 144/145/118 132/132/106
f 122/133/107 134/146/119 133/147/117 121/134/105
f 123/135/108 135/148/120 134/146/119 122/133/107
f 124/136/109 136/149/121 135/148/120 123/135/108
f 125/137/110 137/150/122 136/149/121 124/136/109
f 126/138/111 138/151/123 137/150/122 125/137/110
f 127/139/112 139/152/124 138/151/123 126/138/111
f 128/140/113 140/153/125 139/152/124 127/139/112
f 129/141/114 141/154/126 140/153/125 128/140/113
f 130/142/115 142/155/127 141/154/126 129/141/114
f 131/143/116 143/156/128 142/155/127 130/142/115
f 132/132/106 144/145/118 143/156/128 131/143/116
