# Blender v3.1.0 Alpha OBJ File: ''
# www.blender.org
mtllib pipe 2.mtl
o Plane.007
v 2.320942 4.987163 5.024189
v 2.357544 5.023765 5.024189
v 2.407544 5.037162 5.024189
v 2.457544 5.023765 5.024189
v 2.494146 4.987163 5.024189
v 2.507545 4.937162 5.024189
v 2.494146 4.887163 5.024189
v 2.457544 4.850560 5.024189
v 2.407544 4.837162 5.024189
v 2.357544 4.850560 5.024189
v 2.320942 4.887162 5.024189
v 2.307544 4.937162 5.024189
v 2.322606 4.987163 4.907611
v 2.358505 5.023765 4.914752
v 2.407544 5.037162 4.924507
v 2.456583 5.023765 4.934261
v 2.492482 4.987163 4.941402
v 2.505623 4.937162 4.944016
v 2.492482 4.887163 4.941402
v 2.456583 4.850560 4.934261
v 2.407544 4.837162 4.924507
v 2.358505 4.850560 4.914752
v 2.322606 4.887162 4.907611
v 2.309465 4.937162 4.904998
v 2.369322 4.987163 4.807707
v 2.395204 5.023765 4.833589
v 2.430559 5.037162 4.868944
v 2.465915 5.023765 4.904300
v 2.491796 4.987163 4.930182
v 2.501269 4.937162 4.939655
v 2.491796 4.887163 4.930182
v 2.465915 4.850560 4.904300
v 2.430559 4.837162 4.868944
v 2.395204 4.850560 4.833589
v 2.369322 4.887162 4.807707
v 2.359849 4.937162 4.798234
v 2.469226 4.987163 4.760991
v 2.476367 5.023765 4.796890
v 2.486121 5.037162 4.845930
v 2.495875 5.023765 4.894969
v 2.503016 4.987163 4.930868
v 2.505630 4.937162 4.944008
v 2.503016 4.887163 4.930868
v 2.495875 4.850560 4.894969
v 2.486121 4.837162 4.845930
v 2.476367 4.850560 4.796890
v 2.469226 4.887162 4.760991
v 2.466612 4.937162 4.747851
v 2.533020 4.987163 4.759327
v 2.533020 5.023765 4.795929
v 2.533020 5.037162 4.845930
v 2.533020 5.023765 4.895929
v 2.533020 4.987163 4.932532
v 2.533020 4.937162 4.945930
v 2.533020 4.887163 4.932532
v 2.533020 4.850560 4.895930
v 2.533020 4.837162 4.845930
v 2.533020 4.850560 4.795929
v 2.533020 4.887162 4.759327
v 2.533020 4.937162 4.745930
v 17.090681 4.987163 4.760991
v 17.083540 5.023765 4.796890
v 17.073786 5.037162 4.845930
v 17.064030 5.023765 4.894969
v 17.056890 4.987163 4.930868
v 17.054276 4.937162 4.944008
v 17.056890 4.887163 4.930868
v 17.064030 4.850560 4.894969
v 17.073786 4.837162 4.845930
v 17.083540 4.850560 4.796890
v 17.090681 4.887162 4.760991
v 17.093294 4.937162 4.747851
v 17.176172 4.987163 4.801737
v 17.150291 5.023765 4.827620
v 17.114935 5.037162 4.862975
v 17.079580 5.023765 4.898330
v 17.053699 4.987163 4.924212
v 17.044226 4.937162 4.933685
v 17.053698 4.887163 4.924212
v 17.079580 4.850560 4.898330
v 17.114935 4.837162 4.862975
v 17.150291 4.850560 4.827620
v 17.176172 4.887162 4.801738
v 17.185646 4.937162 4.792264
v 17.216919 4.987163 4.887230
v 17.181021 5.023765 4.894371
v 17.131981 5.037162 4.904126
v 17.082941 5.023765 4.913880
v 17.047043 4.987163 4.921021
v 17.033903 4.937162 4.923635
v 17.047043 4.887163 4.921021
v 17.082941 4.850560 4.913880
v 17.131981 4.837162 4.904126
v 17.181021 4.850560 4.894371
v 17.216919 4.887162 4.887230
v 17.230059 4.937162 4.884616
v 17.218584 4.987163 5.008826
v 17.181980 5.023765 5.008826
v 17.131981 5.037162 5.008826
v 17.081982 5.023765 5.008826
v 17.045378 4.987163 5.008826
v 17.031981 4.937162 5.008826
v 17.045378 4.887163 5.008826
v 17.081982 4.850560 5.008826
v 17.131981 4.837162 5.008826
v 17.181980 4.850560 5.008826
v 17.218584 4.887162 5.008826
v 17.231981 4.937162 5.008826
vt 0.000000 1.000000
vt 0.125000 1.000000
vt 0.125000 0.916667
vt 0.000000 0.916667
vt 0.000000 0.083333
vt 0.125000 0.083333
vt 0.125000 0.000000
vt 0.000000 0.000000
vt 0.000000 0.166667
vt 0.125000 0.166667
vt 0.000000 0.250000
vt 0.125000 0.250000
vt 0.000000 0.333333
vt 0.125000 0.333333
vt 0.000000 0.416667
vt 0.125000 0.416667
vt 0.000000 0.500000
vt 0.125000 0.500000
vt 0.000000 0.583333
vt 0.125000 0.583333
vt 0.000000 0.666667
vt 0.125000 0.666667
vt 0.000000 0.750000
vt 0.125000 0.750000
vt 0.000000 0.833333
vt 0.125000 0.833333
vt 0.250000 1.000000
vt 0.250000 0.916667
vt 0.250000 0.083333
vt 0.250000 0.000000
vt 0.250000 0.166667
vt 0.250000 0.250000
vt 0.250000 0.333333
vt 0.250000 0.416667
vt 0.250000 0.500000
vt 0.250000 0.583333
vt 0.250000 0.666667
vt 0.250000 0.750000
vt 0.250000 0.833333
vt 0.375000 1.000000
vt 0.375000 0.916667
vt 0.375000 0.083333
vt 0.375000 0.000000
vt 0.375000 0.166667
vt 0.375000 0.250000
vt 0.375000 0.333333
vt 0.375000 0.416667
vt 0.375000 0.500000
vt 0.375000 0.583333
vt 0.375000 0.666667
vt 0.375000 0.750000
vt 0.375000 0.833333
vt 0.500000 1.000000
vt 0.500000 0.916667
vt 0.500000 0.083333
vt 0.500000 0.000000
vt 0.500000 0.166667
vt 0.500000 0.250000
vt 0.500000 0.333333
vt 0.500000 0.416667
vt 0.500000 0.500000
vt 0.500000 0.583333
vt 0.500000 0.666667
vt 0.500000 0.750000
vt 0.500000 0.833333
vt 0.625000 1.000000
vt 0.625000 0.916667
vt 0.625000 0.083333
vt 0.625000 0.000000
vt 0.625000 0.166667
vt 0.625000 0.250000
vt 0.625000 0.333333
vt 0.625000 0.416667
vt 0.625000 0.500000
vt 0.625000 0.583333
vt 0.625000 0.666667
vt 0.625000 0.750000
vt 0.625000 0.833333
vt 0.750000 1.000000
vt 0.750000 0.916667
vt 0.750000 0.083333
vt 0.750000 0.000000
vt 0.750000 0.166667
vt 0.750000 0.250000
vt 0.750000 0.333333
vt 0.750000 0.416667
vt 0.750000 0.500000
vt 0.750000 0.583333
vt 0.750000 0.666667
vt 0.750000 0.750000
vt 0.750000 0.833333
vt 0.875000 1.000000
vt 0.875000 0.916667
vt 0.875000 0.083333
vt 0.875000 0.000000
vt 0.875000 0.166667
vt 0.875000 0.250000
vt 0.875000 0.333333
vt 0.875000 0.416667
vt 0.875000 0.500000
vt 0.875000 0.583333
vt 0.875000 0.666667
vt 0.875000 0.750000
vt 0.875000 0.833333
vt 1.000000 1.000000
vt 1.000000 0.916667
vt 1.000000 0.083333
vt 1.000000 0.000000
vt 1.000000 0.166667
vt 1.000000 0.250000
vt 1.000000 0.333333
vt 1.000000 0.416667
vt 1.000000 0.500000
vt 1.000000 0.583333
vt 1.000000 0.666667
vt 1.000000 0.750000
vt 1.000000 0.833333
vn -0.8681 0.4962 -0.0119
vn -0.8528 0.4841 -0.1955
vn -0.9745 0.0000 -0.2244
vn -0.9999 0.0000 -0.0152
vn -0.5039 0.8637 -0.0049
vn -0.5137 0.8501 -0.1157
vn 0.0001 1.0000 -0.0013
vn -0.0303 0.9995 -0.0102
vn 0.5048 0.8632 -0.0063
vn 0.4868 0.8714 0.0604
vn 0.8688 0.4948 -0.0166
vn 0.8781 0.4751 -0.0565
vn 0.9998 0.0000 -0.0220
vn 0.9879 0.0000 -0.1547
vn 0.8688 -0.4948 -0.0166
vn 0.8781 -0.4751 -0.0566
vn 0.5048 -0.8632 -0.0063
vn 0.4868 -0.8714 0.0603
vn 0.0001 -1.0000 -0.0013
vn -0.0303 -0.9995 -0.0102
vn -0.5039 -0.8637 -0.0049
vn -0.5137 -0.8501 -0.1157
vn -0.8681 -0.4962 -0.0119
vn -0.8528 -0.4841 -0.1955
vn -0.6194 0.4823 -0.6194
vn -0.7071 0.0000 -0.7071
vn -0.3786 0.8446 -0.3786
vn -0.0456 0.9979 -0.0456
vn 0.2918 0.9109 0.2918
vn 0.5331 0.6570 0.5331
vn 0.7071 0.0000 0.7071
vn 0.5331 -0.6570 0.5331
vn 0.2918 -0.9109 0.2918
vn -0.0456 -0.9979 -0.0456
vn -0.3786 -0.8446 -0.3786
vn -0.6194 -0.4823 -0.6194
vn -0.2003 0.4843 -0.8516
vn -0.2302 0.0000 -0.9731
vn -0.1180 0.8502 -0.5129
vn -0.0109 0.9995 -0.0302
vn 0.0559 0.8720 0.4863
vn -0.0712 0.4755 0.8768
vn -0.1758 0.0000 0.9844
vn -0.0712 -0.4755 0.8768
vn 0.0559 -0.8720 0.4863
vn -0.0109 -0.9995 -0.0302
vn -0.1180 -0.8502 -0.5129
vn -0.2003 -0.4843 -0.8516
vn -0.0108 0.4963 -0.8681
vn -0.0136 0.0000 -0.9999
vn -0.0046 0.8637 -0.5039
vn -0.0014 1.0000 0.0001
vn -0.0080 0.8630 0.5052
vn -0.0228 0.4941 0.8691
vn -0.0309 0.0000 0.9995
vn -0.0228 -0.4941 0.8691
vn -0.0080 -0.8629 0.5052
vn -0.0014 -1.0000 0.0001
vn -0.0046 -0.8637 -0.5039
vn -0.0108 -0.4963 -0.8681
vn 0.1928 0.4840 -0.8535
vn 0.2207 0.0000 -0.9753
vn 0.1150 0.8498 -0.5143
vn 0.0108 0.9995 -0.0297
vn 0.0304 0.8540 0.5194
vn 0.4695 0.5206 0.7131
vn 0.8370 0.0000 0.5472
vn 0.4695 -0.5206 0.7131
vn 0.0305 -0.8540 0.5194
vn 0.0108 -0.9995 -0.0297
vn 0.1150 -0.8498 -0.5143
vn 0.1928 -0.4840 -0.8535
vn 0.6195 0.4821 -0.6195
vn 0.7071 0.0000 -0.7071
vn 0.3786 0.8446 -0.3786
vn 0.0461 0.9979 -0.0461
vn -0.2456 0.9377 0.2456
vn 0.4983 0.7095 -0.4982
vn 0.4984 -0.7094 -0.4983
vn -0.2456 -0.9377 0.2456
vn 0.0461 -0.9979 -0.0461
vn 0.3786 -0.8446 -0.3786
vn 0.6195 -0.4821 -0.6195
vn 0.8522 0.4842 -0.1983
vn 0.9738 0.0000 -0.2275
vn 0.5134 0.8500 -0.1174
vn 0.0297 0.9995 -0.0114
vn -0.5188 0.8542 -0.0332
vn -0.7084 0.5180 -0.4795
vn -0.5389 0.0000 -0.8424
vn -0.7084 -0.5180 -0.4794
vn -0.5189 -0.8542 -0.0332
vn 0.0297 -0.9995 -0.0114
vn 0.5134 -0.8500 -0.1174
vn 0.8522 -0.4842 -0.1983
vn 0.8681 0.4962 -0.0114
vn 0.9999 0.0000 -0.0146
vn 0.5039 0.8637 -0.0047
vn -0.0001 1.0000 -0.0012
vn -0.5047 0.8632 -0.0060
vn -0.8688 0.4949 -0.0157
vn -0.9998 0.0000 -0.0207
vn -0.8688 -0.4949 -0.0157
vn -0.5047 -0.8632 -0.0060
vn -0.0001 -1.0000 -0.0012
vn 0.5039 -0.8637 -0.0047
vn 0.8681 -0.4963 -0.0114
usemtl None
s 1
f 1/1/1 13/2/2 24/3/3 12/4/4
f 2/5/5 14/6/6 13/7/2 1/8/1
f 3/9/7 15/10/8 14/6/6 2/5/5
f 4/11/9 16/12/10 15/10/8 3/9/7
f 5/13/11 17/14/12 16/12/10 4/11/9
f 6/15/13 18/16/14 17/14/12 5/13/11
f 7/17/15 19/18/16 18/16/14 6/15/13
f 8/19/17 20/20/18 19/18/16 7/17/15
f 9/21/19 21/22/20 20/20/18 8/19/17
f 10/23/21 22/24/22 21/22/20 9/21/19
f 11/25/23 23/26/24 22/24/22 10/23/21
f 12/4/4 24/3/3 23/26/24 11/25/23
f 13/2/2 25/27/25 36/28/26 24/3/3
f 14/6/6 26/29/27 25/30/25 13/7/2
f 15/10/8 27/31/28 26/29/27 14/6/6
f 16/12/10 28/32/29 27/31/28 15/10/8
f 17/14/12 29/33/30 28/32/29 16/12/10
f 18/16/14 30/34/31 29/33/30 17/14/12
f 19/18/16 31/35/32 30/34/31 18/16/14
f 20/20/18 32/36/33 31/35/32 19/18/16
f 21/22/20 33/37/34 32/36/33 20/20/18
f 22/24/22 34/38/35 33/37/34 21/22/20
f 23/26/24 35/39/36 34/38/35 22/24/22
f 24/3/3 36/28/26 35/39/36 23/26/24
f 25/27/25 37/40/37 48/41/38 36/28/26
f 26/29/27 38/42/39 37/43/37 25/30/25
f 27/31/28 39/44/40 38/42/39 26/29/27
f 28/32/29 40/45/41 39/44/40 27/31/28
f 29/33/30 41/46/42 40/45/41 28/32/29
f 30/34/31 42/47/43 41/46/42 29/33/30
f 31/35/32 43/48/44 42/47/43 30/34/31
f 32/36/33 44/49/45 43/48/44 31/35/32
f 33/37/34 45/50/46 44/49/45 32/36/33
f 34/38/35 46/51/47 45/50/46 33/37/34
f 35/39/36 47/52/48 46/51/47 34/38/35
f 36/28/26 48/41/38 47/52/48 35/39/36
f 37/40/37 49/53/49 60/54/50 48/41/38
f 38/42/39 50/55/51 49/56/49 37/43/37
f 39/44/40 51/57/52 50/55/51 38/42/39
f 40/45/41 52/58/53 51/57/52 39/44/40
f 41/46/42 53/59/54 52/58/53 40/45/41
f 42/47/43 54/60/55 53/59/54 41/46/42
f 43/48/44 55/61/56 54/60/55 42/47/43
f 44/49/45 56/62/57 55/61/56 43/48/44
f 45/50/46 57/63/58 56/62/57 44/49/45
f 46/51/47 58/64/59 57/63/58 45/50/46
f 47/52/48 59/65/60 58/64/59 46/51/47
f 48/41/38 60/54/50 59/65/60 47/52/48
f 49/53/49 61/66/61 72/67/62 60/54/50
f 50/55/51 62/68/63 61/69/61 49/56/49
f 51/57/52 63/70/64 62/68/63 50/55/51
f 52/58/53 64/71/65 63/70/64 51/57/52
f 53/59/54 65/72/66 64/71/65 52/58/53
f 54/60/55 66/73/67 65/72/66 53/59/54
f 55/61/56 67/74/68 66/73/67 54/60/55
f 56/62/57 68/75/69 67/74/68 55/61/56
f 57/63/58 69/76/70 68/75/69 56/62/57
f 58/64/59 70/77/71 69/76/70 57/63/58
f 59/65/60 71/78/72 70/77/71 58/64/59
f 60/54/50 72/67/62 71/78/72 59/65/60
f 61/66/61 73/79/73 84/80/74 72/67/62
f 62/68/63 74/81/75 73/82/73 61/69/61
f 63/70/64 75/83/76 74/81/75 62/68/63
f 64/71/65 76/84/77 75/83/76 63/70/64
f 65/72/66 77/85/78 76/84/77 64/71/65
f 66/73/67 78/86/74 77/85/78 65/72/66
f 67/74/68 79/87/79 78/86/74 66/73/67
f 68/75/69 80/88/80 79/87/79 67/74/68
f 69/76/70 81/89/81 80/88/80 68/75/69
f 70/77/71 82/90/82 81/89/81 69/76/70
f 71/78/72 83/91/83 82/90/82 70/77/71
f 72/67/62 84/80/74 83/91/83 71/78/72
f 73/79/73 85/92/84 96/93/85 84/80/74
f 74/81/75 86/94/86 85/95/84 73/82/73
f 75/83/76 87/96/87 86/94/86 74/81/75
f 76/84/77 88/97/88 87/96/87 75/83/76
f 77/85/78 89/98/89 88/97/88 76/84/77
f 78/86/74 90/99/90 89/98/89 77/85/78
f 79/87/79 91/100/91 90/99/90 78/86/74
f 80/88/80 92/101/92 91/100/91 79/87/79
f 81/89/81 93/102/93 92/101/92 80/88/80
f 82/90/82 94/103/94 93/102/93 81/89/81
f 83/91/83 95/104/95 94/103/94 82/90/82
f 84/80/74 96/93/85 95/104/95 83/91/83
f 85/92/84 97/105/96 108/106/97 96/93/85
f 86/94/86 98/107/98 97/108/96 85/95/84
f 87/96/87 99/109/99 98/107/98 86/94/86
f 88/97/88 100/110/100 99/109/99 87/96/87
f 89/98/89 101/111/101 100/110/100 88/97/88
f 90/99/90 102/112/102 101/111/101 89/98/89
f 91/100/91 103/113/103 102/112/102 90/99/90
f 92/101/92 104/114/104 103/113/103 91/100/91
f 93/102/93 105/115/105 104/114/104 92/101/92
f 94/103/94 106/116/106 105/115/105 93/102/93
f 95/104/95 107/117/107 106/116/106 94/103/94
f 96/93/85 108/106/97 107/117/107 95/104/95
