# Blender v3.1.0 Alpha OBJ File: ''
# www.blender.org
mtllib wire 2.mtl
o Plane.008_Plane.012
v -28.730732 0.072766 16.986822
v -28.730661 0.083746 16.997803
v -28.730637 0.087766 17.012804
v -28.730661 0.083746 17.027803
v -28.730732 0.072766 17.038784
v -28.730829 0.057766 17.042803
v -28.730927 0.042767 17.038784
v -28.730997 0.031786 17.027803
v -28.731022 0.027767 17.012804
v -28.730997 0.031786 16.997803
v -28.730927 0.042767 16.986822
v -28.730829 0.057766 16.982803
v -15.489695 -0.012572 16.987324
v -15.487502 -0.001603 16.998096
v -15.484557 0.002400 17.012810
v -15.481649 -0.001635 17.027519
v -15.479559 -0.012628 17.038288
v -15.478844 -0.027632 17.042227
v -15.479697 -0.042627 17.038282
v -15.481890 -0.053596 17.027512
v -15.484835 -0.057599 17.012798
v -15.487741 -0.053564 16.998087
v -15.489834 -0.042572 16.987320
v -15.490548 -0.027567 16.983379
v -15.462359 -0.012639 16.977608
v -15.454574 -0.001686 16.985390
v -15.443960 0.002296 16.996004
v -15.433361 -0.001761 17.006603
v -15.425617 -0.012769 17.014351
v -15.422804 -0.027779 17.017168
v -15.425674 -0.042769 17.014301
v -15.433460 -0.053722 17.006519
v -15.444075 -0.057704 16.995907
v -15.454674 -0.053647 16.985306
v -15.462417 -0.042639 16.977560
v -15.465230 -0.027629 16.974741
v -15.452620 -0.012558 16.950228
v -15.441828 -0.001601 16.952387
v -15.427107 0.002384 16.955318
v -15.412403 -0.001669 16.958239
v -15.401656 -0.012675 16.960365
v -15.397744 -0.027684 16.961128
v -15.401716 -0.042675 16.960321
v -15.412508 -0.053631 16.958164
v -15.427229 -0.057616 16.955233
v -15.441933 -0.053563 16.952312
v -15.452680 -0.042557 16.950186
v -15.456592 -0.027548 16.949423
v -15.452621 -0.012693 4.851577
v -15.441831 -0.001737 4.853741
v -15.427111 0.002249 4.856676
v -15.412407 -0.001804 4.859593
v -15.401658 -0.012810 4.861713
v -15.397744 -0.027819 4.862467
v -15.401714 -0.042810 4.861652
v -15.412505 -0.053766 4.859488
v -15.427225 -0.057751 4.856554
v -15.441929 -0.053698 4.853636
v -15.452678 -0.042693 4.851516
v -15.456592 -0.027683 4.850762
v -15.429906 -0.012533 4.800591
v -15.422131 -0.001590 4.808398
v -15.411520 0.002379 4.819020
v -15.400917 -0.001690 4.829611
v -15.393164 -0.012708 4.837334
v -15.390336 -0.027721 4.840119
v -15.393192 -0.042708 4.837220
v -15.400967 -0.053652 4.829413
v -15.411577 -0.057620 4.818792
v -15.422180 -0.053551 4.808201
v -15.429935 -0.042533 4.800478
v -15.432762 -0.027520 4.797693
v -15.379107 -0.012382 4.777975
v -15.377104 -0.001496 4.788867
v -15.374228 0.002396 4.803623
v -15.371246 -0.001750 4.818289
v -15.368961 -0.012822 4.828935
v -15.367983 -0.027854 4.832708
v -15.368574 -0.042818 4.828598
v -15.370576 -0.053704 4.817706
v -15.373453 -0.057595 4.802951
v -15.376432 -0.053449 4.788285
v -15.378718 -0.042377 4.777639
v -15.379697 -0.027345 4.773865
v -10.017662 0.141271 4.777778
v -10.019878 0.151677 4.789090
v -10.020619 0.155156 4.804206
v -10.019687 0.150777 4.819077
v -10.017331 0.139713 4.829715
v -10.014183 0.124928 4.833273
v -10.011086 0.110385 4.828795
v -10.008870 0.099979 4.817483
v -10.008129 0.096500 4.802367
v -10.009062 0.100879 4.787498
v -10.011417 0.111943 4.776858
v -10.014565 0.126728 4.773301
v -10.013245 0.142082 4.777778
v -10.020742 0.149630 4.789090
v -10.023250 0.152153 4.804206
v -10.020095 0.148977 4.819077
v -10.012122 0.140952 4.829715
v -10.001469 0.130228 4.833273
v -9.990989 0.119679 4.828795
v -9.983491 0.112131 4.817483
v -9.980984 0.109607 4.802367
v -9.984139 0.112784 4.787498
v -9.992111 0.120809 4.776858
v -10.002765 0.131533 4.773301
v -10.012453 0.146266 4.777778
v -10.022877 0.148395 4.789090
v -10.026362 0.149107 4.804206
v -10.021976 0.148211 4.819077
v -10.010893 0.145946 4.829715
v -9.996082 0.142920 4.833273
v -9.981514 0.139944 4.828795
v -9.971090 0.137814 4.817483
v -9.967605 0.137102 4.802367
v -9.971992 0.137998 4.787498
v -9.983074 0.140263 4.776858
v -9.997885 0.143289 4.773301
v -10.001550 2.262549 4.778573
v -10.011955 2.264853 4.789867
v -10.015203 2.267833 4.804758
v -10.010423 2.270690 4.819254
v -9.998896 2.272659 4.829472
v -9.983710 2.273212 4.832674
v -9.968935 2.272201 4.828001
v -9.958530 2.269896 4.816706
v -9.955282 2.266917 4.801816
v -9.960063 2.264059 4.787319
v -9.971590 2.262091 4.777102
v -9.986775 2.261538 4.773900
v -10.001562 2.260363 4.781031
v -10.011935 2.268564 4.789173
v -10.015140 2.279317 4.799909
v -10.010318 2.289742 4.810360
v -9.998761 2.297044 4.817727
v -9.983566 2.299268 4.820035
v -9.968805 2.295818 4.816666
v -9.958432 2.287617 4.808523
v -9.955228 2.276864 4.797788
v -9.960050 2.266439 4.787336
v -9.971606 2.259136 4.779969
v -9.986801 2.256912 4.777661
v -10.001575 2.257905 4.783216
v -10.011931 2.269258 4.785463
v -10.015113 2.284166 4.788425
v -10.010268 2.298635 4.791308
v -9.998696 2.308789 4.793341
v -9.983497 2.311907 4.793978
v -9.968742 2.307153 4.793048
v -9.958386 2.295800 4.790802
v -9.955205 2.280892 4.787840
v -9.960050 2.266422 4.784956
v -9.971622 2.256268 4.782924
v -9.986821 2.253151 4.782287
v -10.001578 2.257421 1.408779
v -10.011932 2.268995 1.408779
v -10.015113 2.284195 1.408779
v -10.010266 2.298948 1.408779
v -9.998693 2.309303 1.408779
v -9.983493 2.312483 1.408779
v -9.968740 2.307637 1.408779
v -9.958385 2.296063 1.408779
v -9.955205 2.280863 1.408779
v -9.960052 2.266109 1.408779
v -9.971624 2.255755 1.408779
v -9.986825 2.252575 1.408779
vt 0.000000 1.000000
vt 0.076923 1.000000
vt 0.076923 0.916667
vt 0.000000 0.916667
vt 0.000000 0.083333
vt 0.076923 0.083333
vt 0.076923 0.000000
vt 0.000000 0.000000
vt 0.000000 0.166667
vt 0.076923 0.166667
vt 0.000000 0.250000
vt 0.076923 0.250000
vt 0.000000 0.333333
vt 0.076923 0.333333
vt 0.000000 0.416667
vt 0.076923 0.416667
vt 0.000000 0.500000
vt 0.076923 0.500000
vt 0.000000 0.583333
vt 0.076923 0.583333
vt 0.000000 0.666667
vt 0.076923 0.666667
vt 0.000000 0.750000
vt 0.076923 0.750000
vt 0.000000 0.833333
vt 0.076923 0.833333
vt 0.153846 1.000000
vt 0.153846 0.916667
vt 0.153846 0.083333
vt 0.153846 0.000000
vt 0.153846 0.166667
vt 0.153846 0.250000
vt 0.153846 0.333333
vt 0.153846 0.416667
vt 0.153846 0.500000
vt 0.153846 0.583333
vt 0.153846 0.666667
vt 0.153846 0.750000
vt 0.153846 0.833333
vt 0.230769 1.000000
vt 0.230769 0.916667
vt 0.230769 0.083333
vt 0.230769 0.000000
vt 0.230769 0.166667
vt 0.230769 0.250000
vt 0.230769 0.333333
vt 0.230769 0.416667
vt 0.230769 0.500000
vt 0.230769 0.583333
vt 0.230769 0.666667
vt 0.230769 0.750000
vt 0.230769 0.833333
vt 0.307692 1.000000
vt 0.307692 0.916667
vt 0.307692 0.083333
vt 0.307692 0.000000
vt 0.307692 0.166667
vt 0.307692 0.250000
vt 0.307692 0.333333
vt 0.307692 0.416667
vt 0.307692 0.500000
vt 0.307692 0.583333
vt 0.307692 0.666667
vt 0.307692 0.750000
vt 0.307692 0.833333
vt 0.384615 1.000000
vt 0.384615 0.916667
vt 0.384615 0.083333
vt 0.384615 0.000000
vt 0.384615 0.166667
vt 0.384615 0.250000
vt 0.384615 0.333333
vt 0.384615 0.416667
vt 0.384615 0.500000
vt 0.384615 0.583333
vt 0.384615 0.666667
vt 0.384615 0.750000
vt 0.384615 0.833333
vt 0.461538 1.000000
vt 0.461538 0.916667
vt 0.461538 0.083333
vt 0.461538 0.000000
vt 0.461538 0.166667
vt 0.461538 0.250000
vt 0.461538 0.333333
vt 0.461538 0.416667
vt 0.461538 0.500000
vt 0.461538 0.583333
vt 0.461538 0.666667
vt 0.461538 0.750000
vt 0.461538 0.833333
vt 0.538462 1.000000
vt 0.538462 0.916667
vt 0.538462 0.083333
vt 0.538462 0.000000
vt 0.538462 0.166667
vt 0.538462 0.250000
vt 0.538462 0.333333
vt 0.538462 0.416667
vt 0.538462 0.500000
vt 0.538462 0.583333
vt 0.538462 0.666667
vt 0.538462 0.750000
vt 0.538462 0.833333
vt 0.615385 1.000000
vt 0.615385 0.916667
vt 0.615385 0.083333
vt 0.615385 0.000000
vt 0.615385 0.166667
vt 0.615385 0.250000
vt 0.615385 0.333333
vt 0.615385 0.416667
vt 0.615385 0.500000
vt 0.615385 0.583333
vt 0.615385 0.666667
vt 0.615385 0.750000
vt 0.615385 0.833333
vt 0.692308 1.000000
vt 0.692308 0.916667
vt 0.692308 0.083333
vt 0.692308 0.000000
vt 0.692308 0.166667
vt 0.692308 0.250000
vt 0.692308 0.333333
vt 0.692308 0.416667
vt 0.692308 0.500000
vt 0.692308 0.583333
vt 0.692308 0.666667
vt 0.692308 0.750000
vt 0.692308 0.833333
vt 0.769231 1.000000
vt 0.769231 0.916667
vt 0.769231 0.083333
vt 0.769231 0.000000
vt 0.769231 0.166667
vt 0.769231 0.250000
vt 0.769231 0.333333
vt 0.769231 0.416667
vt 0.769231 0.500000
vt 0.769231 0.583333
vt 0.769231 0.666667
vt 0.769231 0.750000
vt 0.769231 0.833333
vt 0.846154 1.000000
vt 0.846154 0.916667
vt 0.846154 0.083333
vt 0.846154 0.000000
vt 0.846154 0.166667
vt 0.846154 0.250000
vt 0.846154 0.333333
vt 0.846154 0.416667
vt 0.846154 0.500000
vt 0.846154 0.583333
vt 0.846154 0.666667
vt 0.846154 0.750000
vt 0.846154 0.833333
vt 0.923077 1.000000
vt 0.923077 0.916667
vt 0.923077 0.083333
vt 0.923077 0.000000
vt 0.923077 0.166667
vt 0.923077 0.250000
vt 0.923077 0.333333
vt 0.923077 0.416667
vt 0.923077 0.500000
vt 0.923077 0.583333
vt 0.923077 0.666667
vt 0.923077 0.750000
vt 0.923077 0.833333
vt 1.000000 1.000000
vt 1.000000 0.916667
vt 1.000000 0.083333
vt 1.000000 0.000000
vt 1.000000 0.166667
vt 1.000000 0.250000
vt 1.000000 0.333333
vt 1.000000 0.416667
vt 1.000000 0.500000
vt 1.000000 0.583333
vt 1.000000 0.666667
vt 1.000000 0.750000
vt 1.000000 0.833333
vn 0.0032 0.4969 -0.8678
vn -0.1459 0.5077 -0.8491
vn -0.1664 0.0006 -0.9861
vn 0.0000 0.0000 -1.0000
vn 0.0056 0.8642 -0.5031
vn -0.0844 0.8771 -0.4728
vn 0.0064 1.0000 -0.0000
vn 0.0123 0.9994 0.0316
vn 0.0056 0.8642 0.5031
vn 0.1127 0.8493 0.5157
vn 0.0032 0.4968 0.8678
vn 0.1839 0.4825 0.8563
vn 0.0000 -0.0001 1.0000
vn 0.2078 -0.0014 0.9781
vn -0.0031 -0.4968 0.8678
vn 0.1794 -0.4849 0.8559
vn -0.0056 -0.8641 0.5032
vn 0.1048 -0.8507 0.5151
vn -0.0064 -1.0000 0.0001
vn 0.0031 -0.9995 0.0311
vn -0.0056 -0.8642 -0.5031
vn -0.0925 -0.8762 -0.4729
vn -0.0031 -0.4968 -0.8678
vn -0.1507 -0.5064 -0.8490
vn -0.5901 0.5509 -0.5901
vn -0.7071 0.0021 -0.7071
vn -0.3047 0.9023 -0.3049
vn 0.0469 0.9978 0.0464
vn 0.3803 0.8432 0.3799
vn 0.6201 0.4808 0.6199
vn 0.7071 -0.0026 0.7071
vn 0.6181 -0.4854 0.6183
vn 0.3767 -0.8461 0.3771
vn 0.0427 -0.9981 0.0431
vn -0.3082 -0.9001 -0.3080
vn -0.5919 -0.5471 -0.5919
vn -0.8489 0.5075 -0.1475
vn -0.9861 0.0025 -0.1663
vn -0.4727 0.8769 -0.0871
vn 0.0334 0.9994 0.0090
vn 0.5186 0.8479 0.1098
vn 0.8579 0.4804 0.1822
vn 0.9782 -0.0020 0.2077
vn 0.8562 -0.4839 0.1811
vn 0.5155 -0.8501 0.1077
vn 0.0297 -0.9995 0.0063
vn -0.4761 -0.8748 -0.0898
vn -0.8511 -0.5034 -0.1492
vn -0.8561 0.4839 -0.1813
vn -0.9780 0.0020 -0.2084
vn -0.5156 0.8501 -0.1075
vn -0.0297 0.9995 -0.0058
vn 0.4766 0.8745 0.0896
vn 0.8518 0.5028 0.1469
vn 0.9867 -0.0025 0.1626
vn 0.8497 -0.5070 0.1448
vn 0.4731 -0.8768 0.0860
vn -0.0332 -0.9994 -0.0098
vn -0.5184 -0.8479 -0.1107
vn -0.8577 -0.4804 -0.1831
vn -0.6188 0.4863 -0.6169
vn -0.7071 0.0035 -0.7071
vn -0.3776 0.8468 -0.3745
vn -0.0433 0.9982 -0.0400
vn 0.3076 0.8996 0.3100
vn 0.5914 0.5469 0.5925
vn 0.7071 -0.0036 0.7071
vn 0.5895 -0.5535 0.5883
vn 0.3045 -0.9034 0.3019
vn -0.0462 -0.9977 -0.0497
vn -0.3794 -0.8424 -0.3825
vn -0.6195 -0.4798 -0.6213
vn -0.1895 0.4941 -0.8484
vn -0.2088 0.0106 -0.9779
vn -0.1210 0.8562 -0.5023
vn -0.0211 0.9996 -0.0169
vn 0.0768 0.8706 0.4859
vn 0.1399 0.4945 0.8578
vn 0.1629 -0.0163 0.9865
vn 0.1525 -0.5210 0.8398
vn 0.0991 -0.8834 0.4580
vn 0.0056 -0.9989 -0.0454
vn -0.0972 -0.8451 -0.5256
vn -0.1756 -0.4757 -0.8619
vn 0.0420 0.5471 -0.8360
vn 0.0048 -0.0010 -1.0000
vn 0.4703 0.7315 -0.4936
vn 0.8104 0.5858 0.0050
vn 0.4588 0.7100 0.5341
vn -0.0055 0.4884 0.8726
vn 0.0169 -0.0528 0.9984
vn 0.1279 -0.5306 0.8379
vn 0.2087 -0.8610 0.4638
vn 0.2353 -0.9716 -0.0254
vn 0.2019 -0.8372 -0.5082
vn 0.1160 -0.4886 -0.8648
vn -0.2553 0.2408 -0.9364
vn 0.0257 -0.0256 -0.9993
vn 0.6067 -0.5485 -0.5753
vn 0.7364 -0.6761 -0.0254
vn 0.3910 -0.2911 0.8731
vn -0.2441 0.2380 0.9401
vn 0.0663 -0.0664 0.9956
vn 0.3950 -0.3964 0.8287
vn 0.6281 -0.6302 0.4563
vn 0.7056 -0.7080 -0.0295
vn 0.6081 -0.6101 -0.5080
vn 0.3599 -0.3612 -0.8602
vn -0.5565 -0.0690 -0.8280
vn -0.0060 -0.0048 -1.0000
vn -0.7282 -0.4925 -0.4766
vn -0.5465 -0.8371 0.0254
vn -0.6902 -0.4568 0.5612
vn -0.4801 -0.0064 0.8772
vn 0.0648 -0.0169 0.9977
vn 0.5408 -0.1233 0.8321
vn 0.8676 -0.2004 0.4551
vn 0.9736 -0.2257 -0.0346
vn 0.8346 -0.1938 -0.5157
vn 0.4826 -0.1116 -0.8687
vn -0.4532 0.6129 -0.6472
vn -0.0006 0.8756 -0.4830
vn -0.8489 0.1957 -0.4910
vn -0.9969 0.0265 0.0743
vn -0.8260 0.1296 0.5485
vn -0.4460 0.2018 0.8720
vn 0.0446 0.2219 0.9740
vn 0.5244 0.1859 0.8309
vn 0.8739 0.1015 0.4754
vn 0.9998 -0.0029 -0.0165
vn 0.8243 0.3442 -0.4494
vn 0.2330 0.8293 -0.5078
vn 0.0530 0.7059 0.7063
vn 0.0495 0.7061 0.7064
vn -0.9896 -0.0989 -0.1044
vn -0.9932 0.0851 0.0796
vn -0.8157 0.4112 0.4068
vn -0.4358 0.6376 0.6352
vn 0.0519 0.7060 0.7063
vn 0.5268 0.5996 0.6025
vn 0.8713 0.3446 0.3494
vn 0.9998 0.0081 0.0136
vn 0.9979 0.0425 0.0479
vn -0.3647 0.6594 0.6574
vn -0.4647 -0.6415 0.6103
vn -0.0218 -0.4830 0.8753
vn -0.8544 -0.4831 0.1913
vn -0.9962 0.0850 0.0211
vn -0.8198 0.5587 0.1251
vn -0.4364 0.8774 0.1993
vn 0.0536 0.9735 0.2221
vn 0.5305 0.8264 0.1888
vn 0.8773 0.4678 0.1064
vn 0.9996 -0.0269 0.0027
vn 0.8145 -0.4634 0.3489
vn 0.2112 -0.5166 0.8297
vn -0.5441 -0.8390 0.0001
vn -0.0551 -0.9985 0.0002
vn -0.8909 -0.4541 0.0000
vn -0.9984 0.0560 0.0000
vn -0.8348 0.5505 0.0000
vn -0.4481 0.8939 0.0001
vn 0.0551 0.9985 0.0002
vn 0.5441 0.8390 0.0001
vn 0.8909 0.4542 0.0000
vn 0.9984 -0.0560 0.0000
vn 0.8348 -0.5505 0.0000
vn 0.4481 -0.8939 0.0001
usemtl None
s 1
f 1/1/1 13/2/2 24/3/3 12/4/4
f 2/5/5 14/6/6 13/7/2 1/8/1
f 3/9/7 15/10/8 14/6/6 2/5/5
f 4/11/9 16/12/10 15/10/8 3/9/7
f 5/13/11 17/14/12 16/12/10 4/11/9
f 6/15/13 18/16/14 17/14/12 5/13/11
f 7/17/15 19/18/16 18/16/14 6/15/13
f 8/19/17 20/20/18 19/18/16 7/17/15
f 9/21/19 21/22/20 20/20/18 8/19/17
f 10/23/21 22/24/22 21/22/20 9/21/19
f 11/25/23 23/26/24 22/24/22 10/23/21
f 12/4/4 24/3/3 23/26/24 11/25/23
f 13/2/2 25/27/25 36/28/26 24/3/3
f 14/6/6 26/29/27 25/30/25 13/7/2
f 15/10/8 27/31/28 26/29/27 14/6/6
f 16/12/10 28/32/29 27/31/28 15/10/8
f 17/14/12 29/33/30 28/32/29 16/12/10
f 18/16/14 30/34/31 29/33/30 17/14/12
f 19/18/16 31/35/32 30/34/31 18/16/14
f 20/20/18 32/36/33 31/35/32 19/18/16
f 21/22/20 33/37/34 32/36/33 20/20/18
f 22/24/22 34/38/35 33/37/34 21/22/20
f 23/26/24 35/39/36 34/38/35 22/24/22
f 24/3/3 36/28/26 35/39/36 23/26/24
f 25/27/25 37/40/37 48/41/38 36/28/26
f 26/29/27 38/42/39 37/43/37 25/30/25
f 27/31/28 39/44/40 38/42/39 26/29/27
f 28/32/29 40/45/41 39/44/40 27/31/28
f 29/33/30 41/46/42 40/45/41 28/32/29
f 30/34/31 42/47/43 41/46/42 29/33/30
f 31/35/32 43/48/44 42/47/43 30/34/31
f 32/36/33 44/49/45 43/48/44 31/35/32
f 33/37/34 45/50/46 44/49/45 32/36/33
f 34/38/35 46/51/47 45/50/46 33/37/34
f 35/39/36 47/52/48 46/51/47 34/38/35
f 36/28/26 48/41/38 47/52/48 35/39/36
f 37/40/37 49/53/49 60/54/50 48/41/38
f 38/42/39 50/55/51 49/56/49 37/43/37
f 39/44/40 51/57/52 50/55/51 38/42/39
f 40/45/41 52/58/53 51/57/52 39/44/40
f 41/46/42 53/59/54 52/58/53 40/45/41
f 42/47/43 54/60/55 53/59/54 41/46/42
f 43/48/44 55/61/56 54/60/55 42/47/43
f 44/49/45 56/62/57 55/61/56 43/48/44
f 45/50/46 57/63/58 56/62/57 44/49/45
f 46/51/47 58/64/59 57/63/58 45/50/46
f 47/52/48 59/65/60 58/64/59 46/51/47
f 48/41/38 60/54/50 59/65/60 47/52/48
f 49/53/49 61/66/61 72/67/62 60/54/50
f 50/55/51 62/68/63 61/69/61 49/56/49
f 51/57/52 63/70/64 62/68/63 50/55/51
f 52/58/53 64/71/65 63/70/64 51/57/52
f 53/59/54 65/72/66 64/71/65 52/58/53
f 54/60/55 66/73/67 65/72/66 53/59/54
f 55/61/56 67/74/68 66/73/67 54/60/55
f 56/62/57 68/75/69 67/74/68 55/61/56
f 57/63/58 69/76/70 68/75/69 56/62/57
f 58/64/59 70/77/71 69/76/70 57/63/58
f 59/65/60 71/78/72 70/77/71 58/64/59
f 60/54/50 72/67/62 71/78/72 59/65/60
f 61/66/61 73/79/73 84/80/74 72/67/62
f 62/68/63 74/81/75 73/82/73 61/69/61
f 63/70/64 75/83/76 74/81/75 62/68/63
f 64/71/65 76/84/77 75/83/76 63/70/64
f 65/72/66 77/85/78 76/84/77 64/71/65
f 66/73/67 78/86/79 77/85/78 65/72/66
f 67/74/68 79/87/80 78/86/79 66/73/67
f 68/75/69 80/88/81 79/87/80 67/74/68
f 69/76/70 81/89/82 80/88/81 68/75/69
f 70/77/71 82/90/83 81/89/82 69/76/70
f 71/78/72 83/91/84 82/90/83 70/77/71
f 72/67/62 84/80/74 83/91/84 71/78/72
f 73/79/73 85/92/85 96/93/86 84/80/74
f 74/81/75 86/94/87 85/95/85 73/82/73
f 75/83/76 87/96/88 86/94/87 74/81/75
f 76/84/77 88/97/89 87/96/88 75/83/76
f 77/85/78 89/98/90 88/97/89 76/84/77
f 78/86/79 90/99/91 89/98/90 77/85/78
f 79/87/80 91/100/92 90/99/91 78/86/79
f 80/88/81 92/101/93 91/100/92 79/87/80
f 81/89/82 93/102/94 92/101/93 80/88/81
f 82/90/83 94/103/95 93/102/94 81/89/82
f 83/91/84 95/104/96 94/103/95 82/90/83
f 84/80/74 96/93/86 95/104/96 83/91/84
f 85/92/85 97/105/97 108/106/98 96/93/86
f 86/94/87 98/107/99 97/108/97 85/95/85
f 87/96/88 99/109/100 98/107/99 86/94/87
f 88/97/89 100/110/101 99/109/100 87/96/88
f 89/98/90 101/111/102 100/110/101 88/97/89
f 90/99/91 102/112/103 101/111/102 89/98/90
f 91/100/92 103/113/104 102/112/103 90/99/91
f 92/101/93 104/114/105 103/113/104 91/100/92
f 93/102/94 105/115/106 104/114/105 92/101/93
f 94/103/95 106/116/107 105/115/106 93/102/94
f 95/104/96 107/117/108 106/116/107 94/103/95
f 96/93/86 108/106/98 107/117/108 95/104/96
f 97/105/97 109/118/109 120/119/110 108/106/98
f 98/107/99 110/120/111 109/121/109 97/108/97
f 99/109/100 111/122/112 110/120/111 98/107/99
f 100/110/101 112/123/113 111/122/112 99/109/100
f 101/111/102 113/124/114 112/123/113 100/110/101
f 102/112/103 114/125/115 113/124/114 101/111/102
f 103/113/104 115/126/116 114/125/115 102/112/103
f 104/114/105 116/127/117 115/126/116 103/113/104
f 105/115/106 117/128/118 116/127/117 104/114/105
f 106/116/107 118/129/119 117/128/118 105/115/106
f 107/117/108 119/130/120 118/129/119 106/116/107
f 108/106/98 120/119/110 119/130/120 107/117/108
f 109/118/109 121/131/121 132/132/122 120/119/110
f 110/120/111 122/133/123 121/134/121 109/121/109
f 111/122/112 123/135/124 122/133/123 110/120/111
f 112/123/113 124/136/125 123/135/124 111/122/112
f 113/124/114 125/137/126 124/136/125 112/123/113
f 114/125/115 126/138/127 125/137/126 113/124/114
f 115/126/116 127/139/128 126/138/127 114/125/115
f 116/127/117 128/140/129 127/139/128 115/126/116
f 117/128/118 129/141/130 128/140/129 116/127/117
f 118/129/119 130/142/131 129/141/130 117/128/118
f 119/130/120 131/143/132 130/142/131 118/129/119
f 120/119/110 132/132/122 131/143/132 119/130/120
f 121/131/121 133/144/133 144/145/134 132/132/122
f 122/133/123 134/146/135 133/147/133 121/134/121
f 123/135/124 135/148/136 134/146/135 122/133/123
f 124/136/125 136/149/137 135/148/136 123/135/124
f 125/137/126 137/150/138 136/149/137 124/136/125
f 126/138/127 138/151/139 137/150/138 125/137/126
f 127/139/128 139/152/140 138/151/139 126/138/127
f 128/140/129 140/153/141 139/152/140 127/139/128
f 129/141/130 141/154/142 140/153/141 128/140/129
f 130/142/131 142/155/143 141/154/142 129/141/130
f 131/143/132 143/156/144 142/155/143 130/142/131
f 132/132/122 144/145/134 143/156/144 131/143/132
f 133/144/133 145/157/145 156/158/146 144/145/134
f 134/146/135 146/159/147 145/160/145 133/147/133
f 135/148/136 147/161/148 146/159/147 134/146/135
f 136/149/137 148/162/149 147/161/148 135/148/136
f 137/150/138 149/163/150 148/162/149 136/149/137
f 138/151/139 150/164/151 149/163/150 137/150/138
f 139/152/140 151/165/152 150/164/151 138/151/139
f 140/153/141 152/166/153 151/165/152 139/152/140
f 141/154/142 153/167/154 152/166/153 140/153/141
f 142/155/143 154/168/155 153/167/154 141/154/142
f 143/156/144 155/169/156 154/168/155 142/155/143
f 144/145/134 156/158/146 155/169/156 143/156/144
f 145/157/145 157/170/157 168/171/158 156/158/146
f 146/159/147 158/172/159 157/173/157 145/160/145
f 147/161/148 159/174/160 158/172/159 146/159/147
f 148/162/149 160/175/161 159/174/160 147/161/148
f 149/163/150 161/176/162 160/175/161 148/162/149
f 150/164/151 162/177/163 161/176/162 149/163/150
f 151/165/152 163/178/164 162/177/163 150/164/151
f 152/166/153 164/179/165 163/178/164 151/165/152
f 153/167/154 165/180/166 164/179/165 152/166/153
f 154/168/155 166/181/167 165/180/166 153/167/154
f 155/169/156 167/182/168 166/181/167 154/168/155
f 156/158/146 168/171/158 167/182/168 155/169/156
