# Blender v3.1.0 Alpha OBJ File: ''
# www.blender.org
mtllib wire 3.mtl
o Plane.004
v 8.053116 5.313481 5.003290
v 8.060436 5.320413 5.000937
v 8.070436 5.322950 5.000076
v 8.080437 5.320413 5.000937
v 8.087757 5.313481 5.003290
v 8.090437 5.304011 5.006504
v 8.087757 5.294542 5.009718
v 8.080437 5.287610 5.012071
v 8.070436 5.285072 5.012932
v 8.060436 5.287610 5.012071
v 8.053116 5.294542 5.009718
v 8.050436 5.304011 5.006504
v 8.053116 5.039090 4.194859
v 8.060436 5.046135 4.192870
v 8.070436 5.048714 4.192142
v 8.080437 5.046135 4.192870
v 8.087757 5.039090 4.194859
v 8.090437 5.029466 4.197575
v 8.087757 5.019842 4.200292
v 8.080437 5.012797 4.202280
v 8.070436 5.010218 4.203008
v 8.060436 5.012797 4.202280
v 8.053116 5.019842 4.200292
v 8.050436 5.029466 4.197575
v 8.053116 4.852824 3.373567
v 8.060436 4.860068 3.372508
v 8.070436 4.862719 3.372120
v 8.080437 4.860068 3.372508
v 8.087757 4.852824 3.373567
v 8.090437 4.842929 3.375014
v 8.087757 4.833035 3.376461
v 8.080437 4.825791 3.377520
v 8.070436 4.823140 3.377908
v 8.060436 4.825791 3.377520
v 8.053116 4.833035 3.376461
v 8.050436 4.842929 3.375014
v 8.053116 4.787426 2.404737
v 8.060436 4.794747 2.404737
v 8.070436 4.797427 2.404737
v 8.080437 4.794747 2.404737
v 8.087757 4.787426 2.404737
v 8.090437 4.777427 2.404737
v 8.087757 4.767426 2.404737
v 8.080437 4.760106 2.404737
v 8.070436 4.757427 2.404737
v 8.060436 4.760106 2.404737
v 8.053116 4.767426 2.404737
v 8.050436 4.777427 2.404737
v 8.053116 4.852824 1.435907
v 8.060436 4.860068 1.436967
v 8.070436 4.862719 1.437354
v 8.080437 4.860068 1.436967
v 8.087757 4.852824 1.435907
v 8.090437 4.842929 1.434460
v 8.087757 4.833035 1.433013
v 8.080437 4.825791 1.431954
v 8.070436 4.823140 1.431566
v 8.060436 4.825791 1.431954
v 8.053116 4.833035 1.433013
v 8.050436 4.842929 1.434460
v 8.053116 5.039090 0.614616
v 8.060436 5.046135 0.616604
v 8.070436 5.048714 0.617332
v 8.080437 5.046135 0.616604
v 8.087757 5.039090 0.614616
v 8.090437 5.029466 0.611899
v 8.087757 5.019842 0.609183
v 8.080437 5.012797 0.607194
v 8.070436 5.010218 0.606466
v 8.060436 5.012797 0.607194
v 8.053116 5.019842 0.609183
v 8.050436 5.029466 0.611899
v 8.053116 5.313481 -0.193816
v 8.060436 5.320413 -0.191463
v 8.070436 5.322950 -0.190602
v 8.080437 5.320413 -0.191463
v 8.087757 5.313481 -0.193816
v 8.090437 5.304011 -0.197030
v 8.087757 5.294542 -0.200243
v 8.080437 5.287610 -0.202596
v 8.070436 5.285072 -0.203457
v 8.060436 5.287610 -0.202596
v 8.053116 5.294542 -0.200243
v 8.050436 5.304011 -0.197030
vt 0.000000 1.000000
vt 0.166667 1.000000
vt 0.166667 0.916667
vt 0.000000 0.916667
vt 0.000000 0.083333
vt 0.166667 0.083333
vt 0.166667 0.000000
vt 0.000000 0.000000
vt 0.000000 0.166667
vt 0.166667 0.166667
vt 0.000000 0.250000
vt 0.166667 0.250000
vt 0.000000 0.333333
vt 0.166667 0.333333
vt 0.000000 0.416667
vt 0.166667 0.416667
vt 0.000000 0.500000
vt 0.166667 0.500000
vt 0.000000 0.583333
vt 0.166667 0.583333
vt 0.000000 0.666667
vt 0.166667 0.666667
vt 0.000000 0.750000
vt 0.166667 0.750000
vt 0.000000 0.833333
vt 0.166667 0.833333
vt 0.333333 1.000000
vt 0.333333 0.916667
vt 0.333333 0.083333
vt 0.333333 0.000000
vt 0.333333 0.166667
vt 0.333333 0.250000
vt 0.333333 0.333333
vt 0.333333 0.416667
vt 0.333333 0.500000
vt 0.333333 0.583333
vt 0.333333 0.666667
vt 0.333333 0.750000
vt 0.333333 0.833333
vt 0.500000 1.000000
vt 0.500000 0.916667
vt 0.500000 0.083333
vt 0.500000 0.000000
vt 0.500000 0.166667
vt 0.500000 0.250000
vt 0.500000 0.333333
vt 0.500000 0.416667
vt 0.500000 0.500000
vt 0.500000 0.583333
vt 0.500000 0.666667
vt 0.500000 0.750000
vt 0.500000 0.833333
vt 0.666667 1.000000
vt 0.666667 0.916667
vt 0.666667 0.083333
vt 0.666667 0.000000
vt 0.666667 0.166667
vt 0.666667 0.250000
vt 0.666667 0.333333
vt 0.666667 0.416667
vt 0.666667 0.500000
vt 0.666667 0.583333
vt 0.666667 0.666667
vt 0.666667 0.750000
vt 0.666667 0.833333
vt 0.833333 1.000000
vt 0.833333 0.916667
vt 0.833333 0.083333
vt 0.833333 0.000000
vt 0.833333 0.166667
vt 0.833333 0.250000
vt 0.833333 0.333333
vt 0.833333 0.416667
vt 0.833333 0.500000
vt 0.833333 0.583333
vt 0.833333 0.666667
vt 0.833333 0.750000
vt 0.833333 0.833333
vt 1.000000 1.000000
vt 1.000000 0.916667
vt 1.000000 0.083333
vt 1.000000 0.000000
vt 1.000000 0.166667
vt 1.000000 0.250000
vt 1.000000 0.333333
vt 1.000000 0.416667
vt 1.000000 0.500000
vt 1.000000 0.583333
vt 1.000000 0.666667
vt 1.000000 0.750000
vt 1.000000 0.833333
vn -0.8659 0.4737 -0.1608
vn -0.8697 0.4750 -0.1340
vn -0.9999 -0.0082 0.0023
vn -1.0000 0.0000 0.0000
vn -0.4998 0.8202 -0.2784
vn -0.5037 0.8314 -0.2347
vn 0.0000 0.9469 -0.3214
vn 0.0000 0.9624 -0.2717
vn 0.4998 0.8202 -0.2784
vn 0.5037 0.8314 -0.2347
vn 0.8659 0.4737 -0.1608
vn 0.8697 0.4750 -0.1340
vn 1.0000 0.0000 0.0000
vn 0.9999 -0.0083 0.0023
vn 0.8659 -0.4737 0.1607
vn 0.8623 -0.4874 0.1375
vn 0.4998 -0.8202 0.2783
vn 0.4963 -0.8355 0.2358
vn 0.0000 -0.9469 0.3213
vn 0.0000 -0.9624 0.2716
vn -0.4998 -0.8202 0.2783
vn -0.4963 -0.8355 0.2358
vn -0.8659 -0.4737 0.1607
vn -0.8623 -0.4874 0.1375
vn -0.8717 0.4849 -0.0709
vn -0.9999 -0.0127 0.0018
vn -0.5058 0.8535 -0.1248
vn 0.0000 0.9895 -0.1447
vn 0.5058 0.8535 -0.1248
vn 0.8717 0.4849 -0.0709
vn 0.9999 -0.0127 0.0018
vn 0.8606 -0.5039 0.0737
vn 0.4947 -0.8599 0.1257
vn 0.0000 -0.9895 0.1447
vn -0.4947 -0.8599 0.1257
vn -0.8606 -0.5039 0.0737
vn -0.8708 0.4917 0.0000
vn -0.9999 -0.0111 0.0000
vn -0.5047 0.8632 0.0000
vn 0.0000 1.0000 0.0000
vn 0.5047 0.8632 0.0000
vn 0.8707 0.4917 0.0000
vn 0.9999 -0.0111 0.0000
vn 0.8611 -0.5083 0.0000
vn 0.4951 -0.8688 0.0000
vn 0.0000 -1.0000 0.0000
vn -0.4951 -0.8688 0.0000
vn -0.8611 -0.5083 0.0000
vn -0.8717 0.4849 0.0709
vn -0.9999 -0.0127 -0.0018
vn -0.5058 0.8535 0.1248
vn 0.0000 0.9895 0.1447
vn 0.5058 0.8535 0.1248
vn 0.8717 0.4849 0.0709
vn 0.9999 -0.0127 -0.0018
vn 0.8606 -0.5039 -0.0737
vn 0.4947 -0.8599 -0.1257
vn 0.0000 -0.9895 -0.1447
vn -0.4947 -0.8599 -0.1257
vn -0.8606 -0.5039 -0.0737
vn -0.8697 0.4750 0.1340
vn -0.9999 -0.0082 -0.0023
vn -0.5037 0.8314 0.2347
vn 0.0000 0.9624 0.2716
vn 0.5037 0.8314 0.2347
vn 0.8697 0.4750 0.1340
vn 0.9999 -0.0083 -0.0023
vn 0.8623 -0.4874 -0.1375
vn 0.4963 -0.8355 -0.2358
vn 0.0000 -0.9624 -0.2716
vn -0.4963 -0.8355 -0.2358
vn -0.8623 -0.4874 -0.1375
vn -0.8659 0.4737 0.1608
vn -0.4998 0.8202 0.2784
vn 0.0000 0.9469 0.3214
vn 0.4998 0.8202 0.2784
vn 0.8659 0.4737 0.1608
vn 0.8659 -0.4737 -0.1607
vn 0.4998 -0.8202 -0.2783
vn 0.0000 -0.9469 -0.3213
vn -0.4998 -0.8202 -0.2783
vn -0.8659 -0.4737 -0.1607
usemtl None
s 1
f 1/1/1 13/2/2 24/3/3 12/4/4
f 2/5/5 14/6/6 13/7/2 1/8/1
f 3/9/7 15/10/8 14/6/6 2/5/5
f 4/11/9 16/12/10 15/10/8 3/9/7
f 5/13/11 17/14/12 16/12/10 4/11/9
f 6/15/13 18/16/14 17/14/12 5/13/11
f 7/17/15 19/18/16 18/16/14 6/15/13
f 8/19/17 20/20/18 19/18/16 7/17/15
f 9/21/19 21/22/20 20/20/18 8/19/17
f 10/23/21 22/24/22 21/22/20 9/21/19
f 11/25/23 23/26/24 22/24/22 10/23/21
f 12/4/4 24/3/3 23/26/24 11/25/23
f 13/2/2 25/27/25 36/28/26 24/3/3
f 14/6/6 26/29/27 25/30/25 13/7/2
f 15/10/8 27/31/28 26/29/27 14/6/6
f 16/12/10 28/32/29 27/31/28 15/10/8
f 17/14/12 29/33/30 28/32/29 16/12/10
f 18/16/14 30/34/31 29/33/30 17/14/12
f 19/18/16 31/35/32 30/34/31 18/16/14
f 20/20/18 32/36/33 31/35/32 19/18/16
f 21/22/20 33/37/34 32/36/33 20/20/18
f 22/24/22 34/38/35 33/37/34 21/22/20
f 23/26/24 35/39/36 34/38/35 22/24/22
f 24/3/3 36/28/26 35/39/36 23/26/24
f 25/27/25 37/40/37 48/41/38 36/28/26
f 26/29/27 38/42/39 37/43/37 25/30/25
f 27/31/28 39/44/40 38/42/39 26/29/27
f 28/32/29 40/45/41 39/44/40 27/31/28
f 29/33/30 41/46/42 40/45/41 28/32/29
f 30/34/31 42/47/43 41/46/42 29/33/30
f 31/35/32 43/48/44 42/47/43 30/34/31
f 32/36/33 44/49/45 43/48/44 31/35/32
f 33/37/34 45/50/46 44/49/45 32/36/33
f 34/38/35 46/51/47 45/50/46 33/37/34
f 35/39/36 47/52/48 46/51/47 34/38/35
f 36/28/26 48/41/38 47/52/48 35/39/36
f 37/40/37 49/53/49 60/54/50 48/41/38
f 38/42/39 50/55/51 49/56/49 37/43/37
f 39/44/40 51/57/52 50/55/51 38/42/39
f 40/45/41 52/58/53 51/57/52 39/44/40
f 41/46/42 53/59/54 52/58/53 40/45/41
f 42/47/43 54/60/55 53/59/54 41/46/42
f 43/48/44 55/61/56 54/60/55 42/47/43
f 44/49/45 56/62/57 55/61/56 43/48/44
f 45/50/46 57/63/58 56/62/57 44/49/45
f 46/51/47 58/64/59 57/63/58 45/50/46
f 47/52/48 59/65/60 58/64/59 46/51/47
f 48/41/38 60/54/50 59/65/60 47/52/48
f 49/53/49 61/66/61 72/67/62 60/54/50
f 50/55/51 62/68/63 61/69/61 49/56/49
f 51/57/52 63/70/64 62/68/63 50/55/51
f 52/58/53 64/71/65 63/70/64 51/57/52
f 53/59/54 65/72/66 64/71/65 52/58/53
f 54/60/55 66/73/67 65/72/66 53/59/54
f 55/61/56 67/74/68 66/73/67 54/60/55
f 56/62/57 68/75/69 67/74/68 55/61/56
f 57/63/58 69/76/70 68/75/69 56/62/57
f 58/64/59 70/77/71 69/76/70 57/63/58
f 59/65/60 71/78/72 70/77/71 58/64/59
f 60/54/50 72/67/62 71/78/72 59/65/60
f 61/66/61 73/79/73 84/80/4 72/67/62
f 62/68/63 74/81/74 73/82/73 61/69/61
f 63/70/64 75/83/75 74/81/74 62/68/63
f 64/71/65 76/84/76 75/83/75 63/70/64
f 65/72/66 77/85/77 76/84/76 64/71/65
f 66/73/67 78/86/13 77/85/77 65/72/66
f 67/74/68 79/87/78 78/86/13 66/73/67
f 68/75/69 80/88/79 79/87/78 67/74/68
f 69/76/70 81/89/80 80/88/79 68/75/69
f 70/77/71 82/90/81 81/89/80 69/76/70
f 71/78/72 83/91/82 82/90/81 70/77/71
f 72/67/62 84/80/4 83/91/82 71/78/72
